<?xml version="1.0" encoding="utf-8"?>
<!-- Generator: Adobe Illustrator 23.0.3, SVG Export Plug-In . SVG Version: 6.00 Build 0)  -->
<svg version="1.1" id="Layer_1" xmlns="http://www.w3.org/2000/svg" xmlns:xlink="http://www.w3.org/1999/xlink" x="0px" y="0px"
	 viewBox="0 0 30 26" style="enable-background:new 0 0 30 26;" xml:space="preserve">
<style type="text/css">
	.st0{fill:#F78433;}
</style>
<g>
	<path class="st0" d="M13.9,26H0V15.3c0-3.9,0.8-7,2.5-9.3c1.6-2.3,4.4-4.3,8.4-6l3,5.7C11.4,6.8,9.7,8,8.8,9.1
		c-0.9,1.1-1.5,2.5-1.6,4h6.6V26z M30,26H16.1V15.3c0-3.9,0.8-7,2.5-9.3C20.2,3.7,23,1.7,27,0l3,5.7c-2.4,1.1-4.1,2.3-5.1,3.4
		c-0.9,1.1-1.5,2.5-1.6,4H30V26z"/>
</g>
</svg>
