<?xml version="1.0" encoding="utf-8"?>
<!-- Generator: Adobe Illustrator 23.0.3, SVG Export Plug-In . SVG Version: 6.00 Build 0)  -->
<svg version="1.1" id="Layer_1" xmlns="http://www.w3.org/2000/svg" xmlns:xlink="http://www.w3.org/1999/xlink" x="0px" y="0px"
	 viewBox="0 0 920 79.1" style="enable-background:new 0 0 920 79.1;" xml:space="preserve">
<style type="text/css">
	.st0{fill:#F6F5F1;stroke:#566755;stroke-width:2;stroke-miterlimit:10;}
	.st1{fill:#566755;}
	.st2{font-family:'Montserrat-Bold';}
	.st3{font-size:26px;}
	.st4{font-size:17px;}
	.st5{fill:none;stroke:#566755;stroke-width:2;stroke-miterlimit:10;}
</style>
<g id="define">
	<g>
		<circle class="st0" cx="28.3" cy="24" r="23"/>
		<text transform="matrix(1 0 0 1 21.6493 33.3211)" class="st1 st2 st3">1</text>
	</g>
	<text transform="matrix(1 0 0 1 -6.103516e-05 74.8617)" class="st1 st2 st4">Define</text>
</g>
<g id="empathise">
	<g>
		<circle class="st0" cx="201.1" cy="24" r="23"/>
		<text transform="matrix(1 0 0 1 193.2043 33.3211)" class="st1 st2 st3">2</text>
	</g>
	<text transform="matrix(1 0 0 1 155.119 74.8617)" class="st1 st2 st4">Empathise</text>
</g>
<g id="ideate">
	<g>
		<circle class="st0" cx="373.8" cy="24" r="23"/>
		<text transform="matrix(1 0 0 1 366.1259 33.3211)" class="st1 st2 st3">3</text>
	</g>
	<text transform="matrix(1 0 0 1 346.0649 74.8617)" class="st1 st2 st4">Ideate</text>
</g>
<g id="proto">
	<g>
		<circle class="st0" cx="546.5" cy="24" r="23"/>
		<text transform="matrix(1 0 0 1 538.9038 33.3211)" class="st1 st2 st3">4</text>
	</g>
	<text transform="matrix(1 0 0 1 502.8585 74.8617)" class="st1 st2 st4">Prototype</text>
</g>
<g id="test">
	<g>
		<circle class="st0" cx="719.3" cy="24" r="23"/>
		<text transform="matrix(1 0 0 1 711.5397 33.3211)" class="st1 st2 st3">5</text>
	</g>
	<text transform="matrix(1 0 0 1 700.7072 74.8617)" class="st1 st2 st4">Test</text>
</g>
<g id="refine">
	<g>
		<circle class="st0" cx="892" cy="24" r="23"/>
		<text transform="matrix(1 0 0 1 883.8365 33.3211)" class="st1 st2 st3">6</text>
	</g>
	<text transform="matrix(1 0 0 1 864.0112 74.8617)" class="st1 st2 st4">Refine</text>
</g>
<line id="line1" class="st5" x1="68" y1="24" x2="168" y2="24"/>
<line id="line2" class="st5" x1="239.7" y1="24" x2="339.7" y2="24"/>
<line id="line3" class="st5" x1="410.2" y1="24" x2="510.2" y2="24"/>
<line id="line4" class="st5" x1="582.9" y1="24" x2="682.9" y2="24"/>
<line id="line5" class="st5" x1="755.7" y1="24" x2="855.7" y2="24"/>
</svg>
