<svg id="Layer_1" data-name="Layer 1" xmlns="http://www.w3.org/2000/svg" viewBox="0 0 100 93.02"><defs><style>.cls-1{fill:#566755;fill-rule:evenodd;}</style></defs><title>create</title><path class="cls-1" d="M75.19,3.49l-1.45.24-1,.24-1,.49-1,1-.73.72L68.68,8.11l-1.44,2-2.66,2.43-2.65,2.44-5.3,4.63-5.54,4.87-2.65,2.44L46,29.54l-5.3,5.84L35.42,41l-5.78,5.35-5.79,5.12-5.77,4.62-2.65,2.44L14.22,60,13,61.19l-.73,1.47-.72,1.46-1.44,3.41L8,73.86,6.51,77.52,5.3,81.17,4.1,84.82l-1,1.71-1,1.7L1,90.66.48,92.13,0,93.35V94.8l.25.49.23.49L1,96l.48.24.72.25,1-.25H5.07l1.68-.48,3.13-1.22,1.93-.73,1.93-.48,3.62-1L26,90.66l4.1-1,4.09-1L36.15,88l1.68-.73,1.45-1,1.69-1,2.89-2.43,2.65-2.44,6.75-5.85L60,69.23l5.77-5.11,5.79-5.36L82.89,48.29l12.3-10.47,2.4-2.19,1.2-1.22.74-1.47.47-1.21v-1l-1-2.44-1.2-3.16L96.4,22.23,92.78,16.4,91.33,14l-1.44-2.44L88,9.57l-1-1-1.2-.73L83.14,6.4,80,4.71l-1.69-.49-1.45-.49ZM16.63,65.1l1.21.49,2.4,1.2L22.65,68l.73.74.47,1,.25.73.24,1,.25,1.7.23,1,.49.74.72.48.72.25,1.69.24h3.61l1,.49.73.49.48.73.48.72.72,2,.48,2-.48.74-1.2.47L33,83.84l-1.44.25-5.31,1-6,1.47-1.44.24h-.49l-.47-.49-.73-1L14,82.39l-1.44-2-.49-1-.24-1V77.26l.48-1.69,1-2.69L14,69.72l.24-1.46.48-1.47.48-1.2.72-.49Zm75.9-36.29,1,.24.49.25.23.48-.23.49-.74,1-1,1.22-3.62,3.16L84.83,39l-7.48,6.58-7.47,7.07L62.65,59.5,59,62.66l-3.85,3.17L51.09,69,47,72.4l-1.44,1.7-1.69,2-1.93,1.69-.72.73-1,.49-.47-.49-.49-.73-.72-1.69-.48-2V72.64l.48-1,.72-.73,2.17-2,4.1-2.92L61.93,53.41l7.72-6.09,7.95-6.09,8-6.82,3.37-3.16,2.17-1.71.72-.49Zm-7-8L86,21l.48.24,1,1.21L88,23.69l.24.74v.48l-.49.74-.72,1-1.92,1.46-3.86,2.68-3.86,3.16L73.5,37.34l-8.92,6.82-9.16,7.05-8.67,6.58-4.1,3.4-4.09,3.66-1.2,1.47L35.9,68.26,34.46,70l-1.69,1.22-1,.48-.73.25h-.72l-.48-.25-.47-.48-.49-.74-.25-.73v-2l.74-1,.72-1,1.2-1,4.09-3.41,7.48-6.81,8.43-7.8,8.43-8,4.1-3.89L66,33.19l2.16-1.7,4.34-2.44L74.7,27.6l1.93-1.47L81,22.72l1.2-.72,1.21-.74,1.2-.48ZM40.73,44.88l1,.24,1,.73v.49l-.48.49-1,1-2.89,2.43-2.9,2.44L33,54.87l-1.2,1.21-1.45.49h-1.2l-.24-.25-.25-.24-.23-1,.48-1.2.72-1,1-1,1.21-.48h1l1.45-.25L35,51l.47-.73.48-1,.49-2,.48-1,1-1,1-.25,1-.24ZM46,42.94l-.25.24v-.24ZM48,36.6l.72.25,1,.73.72.73.48.48-.25.73-.72.49-1.2,1-1-1L47,38.56l-.24-.74v-.73l.49-.24Zm4.33-4.38,1.93.49,2.66,1-1.69,1.7-1,.74-.49.24h-.47l-.48-.73-1-1.22-.48-1.22-.24-.72v-.25Zm8.44-7.79,1,.48.95.74.72.48.49.74.24.47-.24.26-.24.23-1.2.25h-1l-1-.74-1-.47h-1l-.72.24-.72.23-.48.26h-.72l.48-1.22,1-1.22,1.2-.73ZM66,17.85l2.16,1.46,1.21,1,.72.73-.24.73-.23.72-.73.74-.48.48-2.17-1.46-2.17-1.7V19.8l.48-.73.72-.73Zm5.3-4.63,1.45.74,1.92,1.22.73.73.23.72v.73l-.72.49h-.47L74,17.61l-1-.49-1.44-1.21-1.2-.73-.25-.49.25-.49Zm5.78-.73,1.45.49,1,.49.24.24v.49l-.24.49-.48.24h-.48l-.24-.24-.48-.25-.49-1Z" transform="translate(0 -3.49)"/></svg>