<svg id="Layer_1" data-name="Layer 1" xmlns="http://www.w3.org/2000/svg" viewBox="0 0 57.21 100.81"><defs><style>.cls-1{fill:#566755;stroke:#566755;stroke-miterlimit:10;stroke-width:0.81px;}</style></defs><title>flexible</title><path class="cls-1" d="M46.08,58.07c-3-.37-6-.59-8.95-1.16A21,21,0,0,1,31.81,55c-2.69-1.36-3.49-3.36-2.78-6.3A27,27,0,0,1,32.6,41a16.69,16.69,0,0,0,1.29-2.57,8,8,0,0,1,3.66-4.1c3.11-1.77,6.24-3.5,9.36-5.25l3.38-1.9c-1-1.88-1.94-3.76-3.1-5.46a32.37,32.37,0,0,0-10.58-9.85,16,16,0,0,0-6.82-2,21.07,21.07,0,0,1-5.25-1.15,3.74,3.74,0,0,1-2.73-3.91A4.82,4.82,0,0,1,25,.58,12.56,12.56,0,0,1,33.71,1C46.21,6.07,55.88,14.12,60.9,27c2.27,5.82,4.93,11.52,6.82,17.47a272.37,272.37,0,0,1,8.46,35c.69,4,1.41,7.91,1.92,11.89a19,19,0,0,1-.18,5.1c-.35,2.4-3.49,4.07-6.11,3.35a8.74,8.74,0,0,1-5.32-4.41A36.14,36.14,0,0,1,63.29,87q-2.37-8.75-4.7-17.49c-.16-.6-.23-1.22-.39-2.11-.27.53-.45.85-.61,1.18-3.89,8.11-7.75,16.23-11.7,24.32A22.62,22.62,0,0,1,43,97.29a5.27,5.27,0,0,1-5,2c-2.51-.36-4.08-2.39-4.2-5.29a14.22,14.22,0,0,1,1.13-5.45q5.54-15.07,11-30.15C46,58.26,46.07,58.12,46.08,58.07Zm17.77,9.22.25.09c-.56,2-1,4.07-1.74,6.05a2.67,2.67,0,0,0,.22,2.15c.72-2,1.41-3.84,2.09-5.71L65,70a1,1,0,0,1,0,.33c-.62,2-1.23,4-1.87,6.06a1.82,1.82,0,0,0,.35,2l1.73-4.41.36.13c-.07.24-.12.49-.19.73-.48,1.44-1,2.87-1.4,4.35a8.41,8.41,0,0,0,0,2.07l.32,0c.72-1.68.9-3.59,2-5.1a1.55,1.55,0,0,1-.07.86c-.45,1.46-.92,2.91-1.33,4.38a3.65,3.65,0,0,0-.24,1.82A55.72,55.72,0,0,0,68.4,94.12,6.9,6.9,0,0,0,72,97.38a2.68,2.68,0,0,0,3.88-2.28,33.66,33.66,0,0,0-.32-5.94A347.38,347.38,0,0,0,68,53.46l-.78-3-1.93.74a24.12,24.12,0,0,1-2.52,1c-3.67,1-7.34,2-11,2.8a5,5,0,0,0-3.26,1.69,4.44,4.44,0,0,0-1,2.48l1.91-2.08c-.86,1.62-2.64,2.7-2.69,5.05L50,58.41a5.74,5.74,0,0,1-.88,1.44c-.87,1.06-1.87,2-2.64,3.14a18.07,18.07,0,0,0-1.32,2.85l.26.13c1.4-1.5,2.81-3,4.21-4.51a.54.54,0,0,1-.14.53c-1.49,1.76-3,3.49-4.47,5.28a7.63,7.63,0,0,0-.79,1.51L49,64.07l.3.26c-.18.22-.34.46-.54.66-1.57,1.69-3.18,3.34-4.71,5.06a9.17,9.17,0,0,0-1,1.8l.23.14,4.49-4.74.19.14a4.89,4.89,0,0,1-.46.72C46,69.83,44.47,71.53,43,73.26a8,8,0,0,0-.79,1.37l.11,0,4.23-4.12.22.18c-2.83,3-6.14,5.79-6.53,9.67l4.54-4c-.75.91-1.57,1.76-2.35,2.64s-1.48,1.76-2.2,2.66a5,5,0,0,0-1.44,3.09l3.85-4.63c-2,3.28-5.06,5.81-6,10,1.64-1.9,2.81-3.91,4.61-5.38-1.48,2.11-3.06,4.13-4.68,6.12A2.92,2.92,0,0,0,36,93.51q1.47-2.12,2.93-4.18l.3.21c-.15.24-.29.48-.46.71-.8,1.15-1.57,2.32-2.42,3.44A1.72,1.72,0,0,0,36.45,96l2.48-3.72.25.17-2.46,4.14.75.5,2.07-3.14.35.23L38,97.29a3.15,3.15,0,0,0,3.27-1,20.37,20.37,0,0,0,2.65-3.8c1.71-3.29,3.27-6.65,4.89-10q4.17-8.51,8.36-17c.31-.63.52-1.48,1.56-1.31.1,0,.28-.29.37-.47.33-.68.65-1.38,1-2.06a9.72,9.72,0,0,1-.53,2.25c-.37,1.12-.39,1.66,0,2.15.63-1.43.86-3,2.1-4.43a3.78,3.78,0,0,1,0,.59c-.49,1.57-1,3.13-1.46,4.71a3.93,3.93,0,0,0,0,1h.21l2-4.6.26.08c0,.16.1.34.05.47C62,65.44,61.4,67,60.84,68.58a4.93,4.93,0,0,0-.09,1.34H61c.74-1.84,1.49-3.67,2.23-5.51l.33.1c0,.16.11.34.06.48-.68,1.91-1.36,3.81-2.07,5.7a2.29,2.29,0,0,0,.35,2.23ZM66.69,48.6c-.33-1.1-.52-2-.84-2.82-2.68-6.8-5.26-13.65-8.1-20.38A37.67,37.67,0,0,0,48.08,12c-4.65-4.18-10.17-6.93-15.83-9.4a11,11,0,0,0-6.61-.57,2.43,2.43,0,0,0-2,3,5.28,5.28,0,0,0,.85,1.34l.23-.15.37-1.53.21,0V6.83l.22,0,.61-2.08c.25,1-.58,1.91.51,2.59l.64-2.15.24.06-.37,2.12,1.07.1L29,5l.24,0-.36,2.52c.69.25.93.06,1-.56a15.94,15.94,0,0,1,.57-1.9l.23,0L30.33,7.7l.34.07.65-2.16.23,0-.26,2.15,1.05.12.8-2,.3.12c-.13.47-.28.94-.39,1.41-.2.8.31.77.86.76l.66-1.9.29,0L34.48,8.5l1.09.41.63-1.78.24,0a7.54,7.54,0,0,1-.06.83c-.22,1.31-.23,1.3,1.21,1.77l.74-2.15.3.09c-.09.5-.16,1-.28,1.49-.27,1.13-.23,1.22,1,1.57l.56-2.13.27,0c0,.44,0,.89-.08,1.33-.16,1.5-.17,1.5,1.29,2.3l.68-1.74.32.12a5.36,5.36,0,0,0-.33,1.77c.08.49.56.92,1,1.58l.74-2.31.3,0c-.21,1.52-.91,3.21,1.22,4l.54-2.3.36.05a13.3,13.3,0,0,1-.24,2c-.31,1.12.3,1.69,1.08,2.32l.66-1.94c.7,1.2-.82,2.7.82,3.77L49.23,17l.28,0a3.75,3.75,0,0,1,.07.81,11.64,11.64,0,0,1-.3,1.75,2.18,2.18,0,0,0,.77,2.41l.86-2.62.37.11c-.19,1-.32,2-.58,3s.25,1.4.71,2.08l.8-2.39.28.07c0,.16.14.35.1.48a7,7,0,0,0,0,5.17c.31.71-.22,1.21-1,1.33a5.39,5.39,0,0,0-1.46.46c-.75.37-1.46.83-2.2,1.23l-9.84,5.35a7.11,7.11,0,0,0-3,3.19c-.57,1.15-1.22,2.25-1.72,3.42a64.3,64.3,0,0,0-2.5,6.32c-.65,2.09,0,3.39,2,4.22A23.43,23.43,0,0,0,38,54.91c2.44.41,4.95.48,7.42.73a2.1,2.1,0,0,0,2.33-1.1,1.8,1.8,0,0,0-.9-2.31,14,14,0,0,0-3.21-1.42c-1.61-.47-3.3-.66-4.91-1.12-2.52-.72-3.14-2.29-2-4.65.39-.84.66-1.74,1-2.61.26-.7.5-1.41.74-2.11l.2.06-.5,2.06a4.83,4.83,0,0,0,1.17-.71,4,4,0,0,0,.44-1.12c.13-.35.25-.69.38-1l.13.06-.38,2.55.31.05,1.11-2.82c.3,1.38-1.34,2.7.18,4.15l1-2.49c.3,1.4-1.2,2.56-.19,4.11l1.06-2.79.33.12c-.24.78-.47,1.56-.73,2.34s-.65,1.56.17,2.34l1-2.34.24.09c.09,1.31-1.32,2.34-.79,3.85l1.24-2.42.3.11L44.22,49c1.41.18,1.17-1.36,2.06-1.63l-.8,1.82c.92.86.88-.51,1.47-.52l-.35,1.1c1.76.86,3.16,2,3.34,3.83Zm-25-.13c-.68-1.59-1.22-2.94-1.83-4.26-.13-.29-.51-.47-.77-.7a4.68,4.68,0,0,0-.64.86A15.65,15.65,0,0,0,37.83,46c-.33,1-.06,1.65,1,1.93A29,29,0,0,0,41.68,48.47Z" transform="translate(-21.4 0.4)"/><path class="cls-1" d="M33.72,12.86c4.53,0,8.3,2.7,9.31,6.65a9.66,9.66,0,0,1-4,10c-2.51,1.83-5.27,2.72-8.34,1.76C25.57,29.63,23,23,25.54,18.3c.09-.16.17-.33.25-.5C27.29,14.32,30,12.84,33.72,12.86Zm1.67,10.37-.33-.14c.44-2.43,2.27-4.2,3.21-6.49L37.22,16C36.34,17.45,36,19.1,35,20.34l-.31-.15,2-4.36c-.72-.53-1.18-.48-1.51.38a20.67,20.67,0,0,1-1,2.05l-.31-.16L35,15.32c-1.23-.35-1,1.23-2,1.3l.73-1.34a1,1,0,0,0-.3-.12C29.07,15,25.52,19,26.44,23.1c.74,3.26,2.83,5.65,5.66,6.11,3.13.52,6.94-1.82,8.3-5.14a19.63,19.63,0,0,0,.57-2L40.76,22l-2.55,4.19L37.82,26a14.44,14.44,0,0,1,.69-1.61c.62-1.08,1.25-2.16,2-3.18.6-.86.25-1.52-.22-2.33-1.13,2-2.21,3.94-3.29,5.85l-.41-.2a16.12,16.12,0,0,1,.77-1.81c.65-1.17,1.38-2.29,2.06-3.44S40,18,38.7,17Z" transform="translate(-21.4 0.4)"/><path class="cls-1" d="M65.25,84.36c-.22-2.21,1-4,1.6-6l.38.1-1.66,6Z" transform="translate(-21.4 0.4)"/><path class="cls-1" d="M67.83,81.31q-.72,2.85-1.45,5.69l-.3-.07c0-2,1-3.8,1.4-5.7Z" transform="translate(-21.4 0.4)"/><path class="cls-1" d="M45.63,73.6l-4.4,5.05-.23-.2,4.31-5.1Z" transform="translate(-21.4 0.4)"/><path class="cls-1" d="M69.43,88.09c-.33,1.42-.67,2.84-1.06,4.47A5.21,5.21,0,0,1,69.43,88.09Z" transform="translate(-21.4 0.4)"/><path class="cls-1" d="M69.4,94a7,7,0,0,1,.71-3.76l.33.07L69.7,94.1Z" transform="translate(-21.4 0.4)"/><path class="cls-1" d="M68.46,85.29c-.34,1.4-.68,2.8-1,4.24C67,88.8,67.44,86.53,68.46,85.29Z" transform="translate(-21.4 0.4)"/><path class="cls-1" d="M71.7,92.62,71,95.84A2.92,2.92,0,0,1,71.7,92.62Z" transform="translate(-21.4 0.4)"/></svg>