<svg id="Layer_1" data-name="Layer 1" xmlns="http://www.w3.org/2000/svg" viewBox="0 0 55.54 100"><defs><style>.cls-1{fill:#566755;fill-rule:evenodd;}</style></defs><title>pin</title><path class="cls-1" d="M61.43,0,58.16.24,54.9.72l-4.77.49-4.78.23-4.78.25-2.5.24-2.27.48L34,2.89l-1.26.73L32,4.34l-.75,1-.51,1.21-.25,1.2-.25,2.9v1.68l.25,1.2.76,1.21,1,1.2,1.52,1.46,1.5.72,1.52.23,2,.25,1.25.47.25.25.25.24v1l-.5,1.2-2,8L37.3,34l-.49,4.34v2.17l-.26.72-.25.72-.26.48-.75.49-1,.24L33,43.62l-1.76.24L29,43.62l-2,.24-1,.24-.76.24-.5.48-.5.49-.51,1.19L23,49.4l-.5,1.69L22.23,53l.25,1.69.24,1.93.51,1.69,1,1.69,1.26,1.2,1.76,1,2,.48h2l2-.23,2-.25,4-.49h2l2,.25,1,.24.26.25.5,1.44.25,1v3.6l1,6,.75,8.2.51,4.1.75,4.08.75,4.34.75,2.17.51,1,.5.72.75.49.75.47h1.77l.75-.47.5-.49.25-.72.51-1v-1.2l.24-2.41V88.92l.26-4.57V68.68l-.26-3.62V62.89l.26-.72.51-.49.75-.47h1L61.43,61l2.51.25h2L68,61l2-.23L71.74,60l1.75-.74,2-1.44,1.26-1.44.76-1.69.25-1.92V50.85l-.25-1.94-1.25-4.09-.77-1.45-.75-.72-1-.48-1.51-.24H68.47l-.5-.24-.76-.48-.49-.72-.51-1L65,35.18,63.7,30.85l-1.26-4.34-.75-4.33-.26-1.69.26-1,.5-.72,1.25-.49,3-1.2,1.51-1L69,15l.75-1.46.51-1.69V10.13L70,8.2l-.26-1.69L69,5.06l-.75-1.68-1-1.21L66,1,64.7.24,63.19,0ZM50.88,61.93l.49.24.51.48.5,1,.25,1.44-.25,2.65v1.93l-.24,1.2-.26.73-.25.24v-.24l-.26-1.2L50.13,67l-.76-1.69-.25-1.44.25-.72v-.49l.5-.48.51-.24ZM35.05,48.68l.24.23.26.74.25,1.2V53.5l-.25,1.69v.48l-.26.24h-.5L34,55.42l-.25-.48-.26-1.21V52.06l.26-1.94.25-1,.75-.48ZM41.33,48l.25.23.5.72v1.21l.25,2.41-.25,1.69v.48l-.26.24-.24.25-.25-.25-.5-.24L40.32,54V53l-.25-1.92.25-1.69.25-1,.5-.48Zm6-.25.5.25.51.48.5,1.21.25,1.2v1.21l-.25,1.2-.26,1-.5.25-.25.23h-.5l-.25-.23-.5-.74-.25-.95V49.16l.49-.72.26-.48Zm8-1.21,2,.25,2.27.24h2L66,46.75h3.53l.75.24,1,1,.5,1.2.5,1.44L72,52.06l-.25.95-.5.49h-.75l-1,.23L60.17,54l-3.77.24-2,.25-1.5-.25-1-.49-.25-.23V52.29l.25-1.44-.25-1.94V47.47l.25-.23,1.51-.49Zm1.77-27,.49.48.26,1,.24,1.21v1.19L57.66,28l.5,3.13.51,2.66,1.26,5.78.24,1.21v.72l-.75.48-1.26.24-3,.24h-3l-1.52.24h-1.5l-.51-.48-.5-.24-.49-.72-1-1-1.77-.48h-.5v-.48l1-.73,2-1.44,1.25-.72,1.26-.72.75-1.21.26-.72v-.48l-.26-1-.49-.72-.76-.24h-.76l-1.76.48-1.5.24,1-1,1-.72,2.51-1.92L51.63,27l.51-1,.24-.49v-.48l-.24-.49-.26-.47-.51-.25-.24-.23-1.26-.25-1.26.25-.75.23-.75.49-.75.23-.26-.23-.25-.24-.26-.25v-.48l.26-1.19.51-1,.49-.72,1-.49,1.51-.23,2.77.23,2.51-.48Zm1.5-14,2,.25L62.44,6l.75.48L63.7,7l.5,1,.25,1.69v1.93l-.51.48-.5.72-.75.24-.5-.24-.5-.23-1.26-.74-1-1-.75-.24H55.91l-3.77.72-5,.72-2.51.49H42.08V11.8l.25-1.67.26-1.93.49-1,.51-.48.75-.24h1.25l1.52.24,1.5.24,1.52-.24,2-.24,4.26-.72ZM38.07,11.8l.24.49-.24.25-.51-.25Z" transform="translate(-22.23 0)"/></svg>