<svg id="Layer_1" data-name="Layer 1" xmlns="http://www.w3.org/2000/svg" viewBox="0 0 100.01 100"><defs><style>.cls-1{fill:#566755;fill-rule:evenodd;}</style></defs><title>search</title><path class="cls-1" d="M37.47,0,33.9.42,30.34,1l-1.71.42L26.92,2l-2,.7-2,1L21.08,4.8,19.23,5.93,17.38,7.2,15.67,8.61l-3.28,2.83L10.83,13,9.4,14.55,8,16.24,6.84,17.8,5.55,19.63l-1,1.84-1,1.84-.85,1.83-.72,2-.56,2-.58,2L.42,33.19.14,35.31,0,37.43v4.38l.14,2.26.43,2.12L1,48.45l.57,2.12.71,2.11,1,2.12,1,2,1.14,2,1.43,2,1.56,2L10,64.41,11.68,66l1.85,1.56,1.85,1.41,2,1.27,2.14,1.27,2.41,1.27,2.43,1.13,2.56,1,2.57.85,2.7.7,2.56.57,2.72.42,2.7.29h2.71l2.71-.29L48.15,77l2.42-.7,2.56-.85,2.29-1.13L57.83,73l2.29-1.41.14.71.14.7.42.57.43.57,1.14,1.12,1,1,1.71,1.41L66.81,79l1.71,1.41,1.57,1.41,2.41,2.4,2.29,2.41L77.07,89l2.27,2.4,1.28,1.13,1.29,1.12,2.56,2,2,1.84.85.84,1.14.85.43.15.28.28.43.14.85.28,1.15-.14,1.14-.14,1.13-.42L95,98.87l1.57-.7.86-.57.85-.84.71-1,.58-1,.28-1.14.14-1.12L99.86,92l-.14-.43L99.58,91l-.43-.42-.29-.28-8.12-8.2-4-4.09-4.27-4-1.86-1.69-2-1.7-2-1.55-1.85-1.84L73.65,66,72.5,64.55l-1.28-1.27-.71-.56-.71-.57,1.57-2.26,1.42-2.26,1.14-2.54,1.14-2.41L75.92,50l.72-2.54.57-2.69.42-2.68.29-2.82V36.58l-.14-2.68-.29-2.68-.42-2.83-.72-2.54-.85-2.68-1.14-2.55-.71-1.55-.86-1.41-.85-1.42-1-1.27L68.8,12.43,66.38,10,63.82,7.91,61,6.07,58,4.38,54.84,3,51.42,1.83,48.15,1,44.58.42,41,0ZM68.52,63.84l1.28,1.84-.29.14-.14.14L68,67.38l-1.57,1.27-1.57,1-.71.57-.14.42-.14.43v.14l.42.14h.43l1-.14.85-.42.86-.57,1.85-1.13.86-.71-.72.71-.71.56-1.42,1.14-.72.56-.14.42v.43l.14.28.29.28.43.15.42-.15,1-.28.85-.57.86-.56,1.28-1,.71-.57.43-.7.43.28-1.28,1.13-1.29,1.13-1.42,1.28-.57.7-.43.85-.14.42.29.42.42.15h.43l.86-.29.85-.56,1.56-1.27,1.29-1,1.28-1.13.29.28-1.57,2.26-.71.85-.72.7-.85.57-.72.85v.56l.15.14.28.15h.86l.85-.15.86-.42.85-.7.86-.57.57-.85.71-.85.43-.85,1.85,1.56-.57.42-.57.43L76.78,76.7l-1.28.85-1.29,1-.14.14-.14.29.14.28.14.28.43.15.58.13h.42l.43-.13.85-.43.86-.42.71-.57.85-.56.72-.85.28-.43.14-.42,1.15,1.13h-.15l-.86.57-.56.7L78.77,79.8l-1.28,1.28-.57.56-.42.85-.15.14.15.14v.29h.28l.85-.29.86-.28,1.43-1,.85-.71.86-.7.7-1,.43-.85,1.14,1.13-.85,1.41-.57.71-.57.56-.71.57-.72.43-.71.42-.71.42v.28l-.14.15.14.42.57.28.43.14h.56l.72-.14,1.14-.56.86-.57.7-.57.58-.7.71-.71.42-.84L87,82.49h-.15l-.71.28-.57.42-1,1.14L83.34,85.6l-.72.7-.71.42-.14.29v.28l.28.28h.28L84,87.15l.72-.43.85-.42L87,85l.57-.7.43-.71v-.14l1.71,1.69L88.46,86.3l-1.28,1.13-1.43,1L85,89l-.57.56-.14.14V90l.14.13.15.15,1,.14.86-.14,1-.42.86-.57.85-.57.72-.7,1.28-1.41,1,1.13L90.6,89.27l-.85.57-.86.56L88,91l-.86.71-.29.28.15.42.14.43.28.14.58.14.7-.14,1.15-.28,1-.57,1-.57,1.14-1,1-1,1.71,1.55-1,1-1,.85-1.57.85-1.42.85-.29.14v.28l.15.14.28.14H92l1,.14,1.14-.28,1-.29.85-.56.71-.56-.14.56-.57.71-.71.56-.85.43-.86.42-1.28.29-1.86.56-.14-.43-.42-.28L89,96.05l-.85-.85-1.71-1.56-4.42-3.53L79.77,88l-2.14-2.26-4.12-4.38-1.43-1.42-1.57-1.27-3.27-2.39L65.67,75,64.1,73.59l-1.42-1.41-1.14-1.56,1.85-1.55,1.85-1.69L67,65.68ZM39.74,3.39l2.14.14L44,3.81l2.13.29,2,.56,2,.56,2,.71,2,.71,1.85,1,1.85,1,1.71,1.14,1.57,1.13,1.57,1.27,1.42,1.27,1.43,1.41,1.71,2,1.56,2.12,1.43,2.12,1.14,2.26,1,2.25L73.22,28l.71,2.4.43,2.4.28,2.4.15,2.4v2.55l-.29,2.39-.43,2.55-.56,2.4-.72,2.4-1,2.4-1.29,2.68-1.42,2.55-1.57,2.26L65.67,62l-1.85,2.12-2.14,2L59.54,67.8l-2.27,1.55-2.43,1.42-2.56,1.12-2.71,1-2.7.7L44.16,74l-3,.15H38.32l-3-.43-2.57-.57-2.56-.7-2.56-.85-2.43-1-2.42-1.27-2.28-1.27-2.28-1.41-2-1.7-2-1.69-1.86-2-1.71-2L9.12,57.21,7.69,54.94,6.41,52.55l-1-2.41L4.56,47.6,4,45.34l-.43-2.12L3.28,41.1V36.87l.14-2.12.28-2,.43-2,.57-2L5.41,27l.72-2,1-1.83,1-1.84,1.28-1.7,1.28-1.69,1.43-1.7,1.71-1.69L16,12.71l2.55-2,3-2,3.13-1.7,1.71-.84,1.71-.71L29.91,5l1.71-.57L33.47,4l1.86-.28,2.14-.14Zm31.2,63.7.14.14-1,1.13.7-.84ZM40.6,8.9,38,9.18l-2.42.57-1.28.14-1.42.28-1.57.42-1.43.57-1.57.71-1.42.7-2.85,1.7-2.7,1.83-2.57,2-2.28,2.26-2.13,2.4-.86,1.41-.85,1.28-.86,1.41-.56,1.41-.72,1.41-.43,1.56-.56,1.55-.29,1.55L9,35.88l-.14,1.69V41l.29,1.7.28,1.69L9.83,46l.42,1.7L11,49.29l.71,1.56.86,1.55,1,1.56,1.14,1.41L16,56.78l1.27,1.27,1.43,1.13,3,2.26,1.71,1.13,1.71,1,1.85,1,1.85.85,1.86.84,2,.57,1.85.57,2.14.42,2,.14,2.14.14,2-.28,2-.28,2-.57,2-.57,1.85-.84,1.85-1,2.28-1.41L57,61.58l2-1.83,1.85-1.84,1.57-2.12L64,53.53l1.28-2.4,1.14-2.4,1-2.54.71-2.54.43-2.55.28-2.68V35.73l-.14-2.68-.43-2.54-.71-2.68-1-2.27-1.13-2.25L64.1,21.19l-1.57-2.12-1.71-1.84L59,15.54,57,14l-2-1.41L52.7,11.44l-2.27-1L48,9.61l-2.41-.43L43,8.9Zm2.28,2.54,2.71.29,2.7.7,2.56,1,2.43,1.13,2.28,1.55,2.27,1.7,2,2.12,1.71,2.25,1.14,1.56,1,1.7.85,1.83.57,1.84.57,1.83L66,32.77l.29,2v3.81L66,40.4l-.28,2-.43,1.83L64.67,46,64,47.88l-.85,1.84-.86,1.69-1.14,1.84-1.28,1.84-1.42,1.55L57,58.19,55.27,59.6l-1.71,1.28L51.85,62,50,63l-2,.85-2,.71L44,65l-2.14.29-2.14.14-2.13-.14L35.47,65l-2.28-.56-1.85-.57-1.85-.7-1.85-.85-1.86-1-1.71-1L22.36,59,20.8,57.77,19.23,56.5l-1.42-1.41-1.29-1.56-1.14-1.69-1.13-1.7-.86-1.69-.85-1.84-.58-2-.42-2L11.4,41l-.14-1.69V37.71L11.4,36l.28-1.56L12,32.91l.58-1.55L13.11,30l.56-1.42.86-1.41.85-1.41.86-1.27,1-1.27,1.14-1.27,2.28-2.27,2.57-2.12,2.56-1.83L28.63,14l1.42-.7,1.43-.71,1.57-.28L35.33,12l4-.42h3.41Zm-9.26,7.34-.43.15-1.57.56-1.57.71-1.42.7-1.28.85-1.28,1-1.29,1-1.14,1.13-1,1.13-1,1.27-.85,1.42L20.08,30l-.71,1.41-.43,1.55-.43,1.55-.28,1.7-.14,1.55V38l.14.28.43.42.43.29h.14l.14-.14.43-.15.28-.42.29-.28.14-.43.14-1.84L21.08,34l.57-1.55.71-1.42.86-1.55,1-1.27,1-1.41,1.28-1.13,1.29-1.13,1.42-.85,1.57-.85L32.19,22l1.57-.57.57-.28.28-.43.14-.42v-.56l-.28-.43-.28-.28ZM38,17.37l-.56.29-.58.28-.43.71v.42l.15.28.14.43.43.28.29.14h1.42l.29.14h1.28l.28-.14.29-.14.28-.28V18.65l-.14-.29L41,18.08l-.43-.42L40,17.51l-.71-.14Z" transform="translate(0 0)"/></svg>