<svg id="Layer_1" data-name="Layer 1" xmlns="http://www.w3.org/2000/svg" viewBox="0 0 100.6 79.09"><defs><style>.cls-1{stroke:#000;stroke-miterlimit:10;stroke-width:0.3px;}.cls-2{fill:#566755;}.cls-3{fill:none;stroke:#566755;stroke-width:0.6px;}</style></defs><title>simple</title><g id="_2K9mpG.tif" data-name="2K9mpG.tif"><path class="cls-1" d="M47.47,89c-9.93,0-19.86,0-29.8,0a35.49,35.49,0,0,1-7.28-.68C4.15,87,.89,83,.65,76.46c-.1-2.78.2-5.58.15-8.37C.74,64.45.43,60.82.37,57.18.22,47.85.13,38.51,0,29.18c0-2.94-.06-5.89,0-8.83.15-5.13,2.43-7.93,7.54-8.63a99.86,99.86,0,0,1,13.26-1c12.78,0,25.55.19,38.33.27,8.13,0,16.26,0,24.39,0a24.5,24.5,0,0,1,4.74.6c7,1.47,10.88,5.72,11.32,12.93.2,3.31-.28,6.66-.31,10,0,4.08-.13,8.19.18,12.25A118,118,0,0,1,99,73.26a28.85,28.85,0,0,0,.16,4.44c0,1.84.09,3.7-.07,5.52-.27,3-2,4.54-5,4.71a17.53,17.53,0,0,1-3-.06,50.78,50.78,0,0,0-9.39,0c-11.4.6-22.83,1-34.24,1.41Zm34-8,.4.25L79.9,84.41c1.46.73,1.94-.34,2.6-1.12s1.38-1.46,2.07-2.19l.48.35-2,3c1.67.32,1.64.3,2.61-.71s1.9-1.88,2.85-2.81l.56.49L86.66,84.5l.34.4c2.62-.33,3-3.73,5.3-4.53l.4.31-2.89,4.11c1.35,0,2.58.8,3-1,.07-.34.5-.6.77-.9.1.39.21.77.3,1.16,0,.18,0,.37.07.55,1.35-.16,1.29-.15,1.19-1.26-.12-1.48-.2-3-.18-4.46s.2-2.7.33-4.33l-3.75,4.78L91.12,79c1.26-3.79,5.24-6.4,4.63-11.08l-3.7,5-.45-.3a6.74,6.74,0,0,1,.66-1.41,47.31,47.31,0,0,1,3.28-4.06,3.15,3.15,0,0,0,.67-3.45c-1.47,2-2.73,3.82-4,5.58l-.51-.25a10,10,0,0,1,.93-2.33,24.12,24.12,0,0,1,3-3.52c1.25-1.18,1.11-2.48.91-3.86l-.47-.23-3.54,6-.42,0c0-.59-.11-1.3.16-1.75a28.24,28.24,0,0,1,3.36-4.89c1.22-1.27,1.06-2.45.71-4.25l-3.89,5.24-.53-.3a8.22,8.22,0,0,1,.81-1.89c1-1.26,2-2.45,3.1-3.64A1.85,1.85,0,0,0,96,51L92,56.18l-.47-.27a11.44,11.44,0,0,1,1.07-2.29c.85-1.11,1.89-2.06,2.82-3.1.32-.36.81-.8.79-1.18-.11-3-.32-5.94-.49-8.9l-.43-.2L89.94,47l-.5-.27a11.68,11.68,0,0,1,1.19-2.49,56.33,56.33,0,0,1,4.24-4.63,2.51,2.51,0,0,0,.44-3.2l-3.73,4.73-.43-.23a4.89,4.89,0,0,1,.51-1.51A11,11,0,0,1,94,36.73a4.8,4.8,0,0,0,2.1-4.29c.08-2.26.24-4.51.36-6.77a10.05,10.05,0,0,0-4.66,6.48l3-2.67.17.28c-1.63,2.5-3.25,5-5,7.69-.7-.08-.94-.34-.45-1.41s1.29-2.23,1.94-3.33c-1.22-.73-1.5-1.22-.66-2.4a45.53,45.53,0,0,1,4.39-5.23c1.13-1.17,1.31-1.55.27-3.06a12.11,12.11,0,0,0-4.16,5c-.1.25-.43.41-.65.61-.17-.27-.51-.58-.46-.82a3.37,3.37,0,0,1,.62-1.64,38.29,38.29,0,0,1,3.41-3.33c1.36-1.16,1.41-1.47-.22-3l-4.4,5.84c-.13-.24-.44-.59-.37-.69,1.32-2.05,2.69-4.07,4.13-6.21l-1.25-1-4.69,5.83-.32-.25c.65-2.47,2.74-4,4.38-5.78-1.62-1.18-2-1.19-3.19.17s-2.17,2.73-3.47,4.39c-.07-.64-.34-1.3-.14-1.74a9.09,9.09,0,0,1,1.54-2c.64-.71,1.34-1.37,2-2.06l-.41-.47c-2.82.21-3.72,3-5.56,4.59-.28-2.42,2.14-3.1,3.14-4.74a1.78,1.78,0,0,0-2.51.39c-1.11,1.36-2.35,2.62-3.54,3.92L79,18.75c.06-2,2.31-2.78,3.13-4.4a3.64,3.64,0,0,0-4.32,1.37c-.53.72-1,1.47-1.61,2.15a5.42,5.42,0,0,1-1,.76,3.48,3.48,0,0,1,.2-1.33c.67-1,1.47-1.93,2.24-2.93-4.2-1-5.94,2-7.93,4.71-.55-2.22,1.36-3.07,2.36-4.43-3.4-.56-5.09.29-6.58,3.13-.2.37-.64.61-1,.91,0-.48-.19-1.08,0-1.43a31.22,31.22,0,0,1,2.1-2.69c-2.89-.47-3.64,2-5.16,3.51-.84-1.76.84-2.41,1.54-3.9-1.56.13-3.09-.15-4.06.46s-1.48,2.14-2.19,3.26l-.5-.27L58,14.05c-1.8,0-3.51-.41-4.83.12s-2.09,2-3.11,3L49.65,17l1.56-2.8c-3.12-.95-5.31.22-6.81,3.07L44,16.81,45.55,14H43.82c-3.8,0-7.59,0-11.38,0-6.84,0-13.68-.18-20.52-.06a38.49,38.49,0,0,0-7.5,1.17,2.45,2.45,0,0,0-1.59,1.65c-.18,2.34-.07,4.69-.07,7l.71.28,1.27-1.85c-1.93,3.41-1.93,3.41-1.08,5l1-1.51L5,26c-.91,1.43-2.5,2.69-1.26,5.15.49-.69.82-1.2,1.19-1.66s.73-.78,1.09-1.17c-1.21,2.23-3.79,3.89-2.24,7.07L6.45,32c-.69,2.63-3.32,4.38-2.85,7.76l2.64-3.1C5.51,39,3,40.53,3.71,43.76l2.75-3.59.32.25A40.27,40.27,0,0,1,4.49,44c-1.13,1.44-.9,2.91-.51,4.85l3-4.78A19.33,19.33,0,0,1,4.86,48.8a5.73,5.73,0,0,0-.72,5.13l3.58-5.24.3.22c-.81,1.41-1.66,2.79-2.41,4.23C3.93,56.38,4,56.39,4.49,57.59l3.06-4.53C7.07,56,3.94,57.87,4.76,61.29l2.52-3.88C7,60.29,3.67,62.15,4.92,65.67L7,62.57l.43.27C6.72,64.15,6,65.46,5.23,66.77a5.7,5.7,0,0,0-.38,4.41l2.39-4.26.43.22c-.8,3.43-4.26,6.14-2.86,10.56l3-5.7.41.23c-.89,2-1.7,4.12-2.7,6.1-.72,1.44-.17,2.4.81,3.56.78-1.46,1.45-2.79,2.19-4.07S10,75.37,10.8,74.15l.48.29c-.45.8-1,1.57-1.33,2.4Q8.7,79.56,7.61,82.33c-.11.26.19.67.3,1a3.88,3.88,0,0,0,.85-.55,9.55,9.55,0,0,0,.58-1l2.8-4.22.47.31c-.24.4-.48.79-.7,1.2-.72,1.31-1.45,2.61-2.15,3.93-.47.88-.18,1.3.68,1.29l3-5.51.31.17L11.2,84.37l.56.42c.33-.35.81-.63,1-1.05A11.64,11.64,0,0,1,16.2,78.8c-.74,1.51-1.66,2.9-2.39,4.39s-.25,2,1.4,1.82a1.5,1.5,0,0,0,.93-.7c.7-1.14,1.29-2.35,2-3.51.39-.67.88-1.28,1.33-1.91l.39.25c-.75,1.43-1.53,2.85-2.23,4.3-.27.55-1,1.35.12,1.68.78.24,1.6.39,2.08-.93a28.83,28.83,0,0,1,2.57-4.49l.46.26L20.4,85.18h2.79c.95-2,1.8-3.82,2.64-5.62l.53.22-1.91,5.41c1.66,0,2.9,0,4.14,0,.94,0,1.35-.36,1.77-1.2a43.13,43.13,0,0,1,2.41-3.84l.51.33c-.54.93-1.08,1.85-1.63,2.77A1.07,1.07,0,0,0,32.18,85c.19.07.75-.51,1-.89.86-1.25,1.67-2.55,2.49-3.84l.47.29L34,84.7l.4.33c2.2-.27,2-3.33,4.24-4l-2.25,4.08c2.77-.22,2.95-3,5-3.55L39.42,85c3,.3,3.38-2.48,4.87-3.77l.42.2-1.6,3.54a1.58,1.58,0,0,0,2.2-.9,27.59,27.59,0,0,1,1.8-2.66l.42.29-2,3.24c1.74.58,2.84.24,3.56-1.37a26.22,26.22,0,0,1,1.87-3l.38.24c-.72,1.36-1.45,2.72-2.19,4.13,1.29.46,2.05.32,2.65-.82A28.52,28.52,0,0,1,54,81l.41.3-2,3.67c3.5.51,3.5.51,5.12-2.14.46-.75,1-1.46,1.45-2.19l.55.32-2,4a2.49,2.49,0,0,0,3.31-1.2,20.16,20.16,0,0,1,2.1-2.55l.45.4-2.13,3.29A1.73,1.73,0,0,0,63.64,84a32.3,32.3,0,0,1,2.88-3.45l.55.38-2.6,3.9c1.7.36,2.89.24,3.79-1.25a23.69,23.69,0,0,1,2.58-3l.45.37-2.54,3.71c2,.4,1.94.35,2.91-.91.84-1.08,1.81-2,2.72-3.08l.4.35-2.33,3.62c3.31.61,3.5-2.81,5.48-3.67l.38.24-2,3.46C79.25,84.85,79.62,81.9,81.42,81Z" transform="translate(0.3 -10.46)"/><path class="cls-1" d="M34.44,54.48a45.45,45.45,0,0,0-13.38-.72,1.87,1.87,0,0,0-1.23,1.08c-1.22,3.21-2.32,6.46-3.53,9.68-.18.47-.7.81-1.06,1.22-.19-.52-.61-1.09-.52-1.56.47-2.44,1.07-4.86,1.62-7.28a62.89,62.89,0,0,1,6.17-16.15,48.53,48.53,0,0,1,2.73-5c1.8-2.52,4.3-2.44,6.16,0a8.53,8.53,0,0,1,1,1.68C35,43.74,37.52,50,38.58,56.8a35.33,35.33,0,0,0,1.18,4.46c.33,1.11.19,2-1,2.44a1.76,1.76,0,0,1-2.52-1.16c-.58-2.06-1-4.17-1.46-6.26C34.68,55.7,34.57,55.12,34.44,54.48Zm-.74-3.59a114.19,114.19,0,0,0-5.17-13.45l-.65-.06c-2.25,4.47-4.51,8.94-6.82,13.51Z" transform="translate(0.3 -10.46)"/><path class="cls-1" d="M49.57,42.5v8.93l1.68-.91a7,7,0,0,1,8.4,1.29,6.3,6.3,0,0,1,1,8.19,13.83,13.83,0,0,1-2.77,3.28A6.17,6.17,0,0,1,47.5,59.42a49.47,49.47,0,0,1,0-9.81,48.54,48.54,0,0,1,1.09-6.28,3.26,3.26,0,0,1,.42-.86Zm3.73,19c2.3-.23,3.38-1.77,4.26-3.48a3,3,0,0,0-1.81-4.46c-1.79-.63-4.37.62-5.35,2.59-.5,1,.64,4.28,1.75,4.94A6.7,6.7,0,0,0,53.3,61.46Z" transform="translate(0.3 -10.46)"/><path class="cls-1" d="M74.22,64.53c-2.75.34-4.78-1.1-6.22-3.37a6.63,6.63,0,0,1-.67-2.95A8.89,8.89,0,0,1,67.62,56a6.49,6.49,0,0,1,6.66-5.4c2,.08,3.6,1.46,3.51,3.14a1.88,1.88,0,0,1-.62,1.2c-.14.11-.84-.21-1.06-.5a2,2,0,0,0-2.57-.55c-1,.35-2.11.76-2.23,2.11-.06.7-.09,1.4-.09,2.09a2.32,2.32,0,0,0,2.33,2.38,8.24,8.24,0,0,0,5.78-1.58c.87-.71,2.08-1.54,3-.44s.09,2.28-.64,3.22C79.86,64.06,77.2,64.56,74.22,64.53Z" transform="translate(0.3 -10.46)"/><path class="cls-1" d="M95.54,45.49,91.32,52C90.57,50.46,93,46.36,95.54,45.49Z" transform="translate(0.3 -10.46)"/><path class="cls-1" d="M29.69,80.45c-.23.45-.48.89-.69,1.35-.3.67-.56,1.35-.88,2a5.42,5.42,0,0,1-.59.83c-.11-.36-.4-.81-.28-1.06.58-1.17,1.27-2.28,1.92-3.41Z" transform="translate(0.3 -10.46)"/><path class="cls-2" d="M47.47,89c-9.93,0-19.86,0-29.8,0a35.49,35.49,0,0,1-7.28-.68C4.15,87,.89,83,.65,76.46c-.1-2.78.2-5.58.15-8.37C.74,64.45.43,60.82.37,57.18.22,47.85.13,38.51,0,29.18c0-2.94-.06-5.89,0-8.83.15-5.13,2.43-7.93,7.54-8.63a99.86,99.86,0,0,1,13.26-1c12.78,0,25.55.19,38.33.27,8.13,0,16.26,0,24.39,0a24.5,24.5,0,0,1,4.74.6c7,1.47,10.88,5.72,11.32,12.93.2,3.31-.28,6.66-.31,10,0,4.08-.13,8.19.18,12.25A118,118,0,0,1,99,73.26a28.85,28.85,0,0,0,.16,4.44c0,1.84.09,3.7-.07,5.52-.27,3-2,4.54-5,4.71a17.53,17.53,0,0,1-3-.06,50.78,50.78,0,0,0-9.39,0c-11.4.6-22.83,1-34.24,1.41Zm34-8,.4.25L79.9,84.41c1.46.73,1.94-.34,2.6-1.12s1.38-1.46,2.07-2.19l.48.35-2,3c1.67.32,1.64.3,2.61-.71s1.9-1.88,2.85-2.81l.56.49L86.66,84.5l.34.4c2.62-.33,3-3.73,5.3-4.53l.4.31-2.89,4.11c1.35,0,2.58.8,3-1,.07-.34.5-.6.77-.9.1.39.21.77.3,1.16,0,.18,0,.37.07.55,1.35-.16,1.29-.15,1.19-1.26-.12-1.48-.2-3-.18-4.46s.2-2.7.33-4.33l-3.75,4.78L91.12,79c1.26-3.79,5.24-6.4,4.63-11.08l-3.7,5-.45-.3a6.74,6.74,0,0,1,.66-1.41,47.31,47.31,0,0,1,3.28-4.06,3.15,3.15,0,0,0,.67-3.45c-1.47,2-2.73,3.82-4,5.58l-.51-.25a10,10,0,0,1,.93-2.33,24.12,24.12,0,0,1,3-3.52c1.25-1.18,1.11-2.48.91-3.86l-.47-.23-3.54,6-.42,0c0-.59-.11-1.3.16-1.75a28.24,28.24,0,0,1,3.36-4.89c1.22-1.27,1.06-2.45.71-4.25l-3.89,5.24-.53-.3a8.22,8.22,0,0,1,.81-1.89c1-1.26,2-2.45,3.1-3.64A1.85,1.85,0,0,0,96,51L92,56.18l-.47-.27a11.44,11.44,0,0,1,1.07-2.29c.85-1.11,1.89-2.06,2.82-3.1.32-.36.81-.8.79-1.18-.11-3-.32-5.94-.49-8.9l-.43-.2L89.94,47l-.5-.27a11.68,11.68,0,0,1,1.19-2.49,56.33,56.33,0,0,1,4.24-4.63,2.51,2.51,0,0,0,.44-3.2l-3.73,4.73-.43-.23a4.89,4.89,0,0,1,.51-1.51A11,11,0,0,1,94,36.73a4.8,4.8,0,0,0,2.1-4.29c.08-2.26.24-4.51.36-6.77a10.05,10.05,0,0,0-4.66,6.48l3-2.67.17.28c-1.63,2.5-3.25,5-5,7.69-.7-.08-.94-.34-.45-1.41s1.29-2.23,1.94-3.33c-1.22-.73-1.5-1.22-.66-2.4a45.53,45.53,0,0,1,4.39-5.23c1.13-1.17,1.31-1.55.27-3.06a12.11,12.11,0,0,0-4.16,5c-.1.25-.43.41-.65.61-.17-.27-.51-.58-.46-.82a3.37,3.37,0,0,1,.62-1.64,38.29,38.29,0,0,1,3.41-3.33c1.36-1.16,1.41-1.47-.22-3l-4.4,5.84c-.13-.24-.44-.59-.37-.69,1.32-2.05,2.69-4.07,4.13-6.21l-1.25-1-4.69,5.83-.32-.25c.65-2.47,2.74-4,4.38-5.78-1.62-1.18-2-1.19-3.19.17s-2.17,2.73-3.47,4.39c-.07-.64-.34-1.3-.14-1.74a9.09,9.09,0,0,1,1.54-2c.64-.71,1.34-1.37,2-2.06l-.41-.47c-2.82.21-3.72,3-5.56,4.59-.28-2.42,2.14-3.1,3.14-4.74a1.78,1.78,0,0,0-2.51.39c-1.11,1.36-2.35,2.62-3.54,3.92L79,18.75c.06-2,2.31-2.78,3.13-4.4a3.64,3.64,0,0,0-4.32,1.37c-.53.72-1,1.47-1.61,2.15a5.42,5.42,0,0,1-1,.76,3.48,3.48,0,0,1,.2-1.33c.67-1,1.47-1.93,2.24-2.93-4.2-1-5.94,2-7.93,4.71-.55-2.22,1.36-3.07,2.36-4.43-3.4-.56-5.09.29-6.58,3.13-.2.37-.64.61-1,.91,0-.48-.19-1.08,0-1.43a31.22,31.22,0,0,1,2.1-2.69c-2.89-.47-3.64,2-5.16,3.51-.84-1.76.84-2.41,1.54-3.9-1.56.13-3.09-.15-4.06.46s-1.48,2.14-2.19,3.26l-.5-.27L58,14.05c-1.8,0-3.51-.41-4.83.12s-2.09,2-3.11,3L49.65,17l1.56-2.8c-3.12-.95-5.31.22-6.81,3.07L44,16.81,45.55,14H43.82c-3.8,0-7.59,0-11.38,0-6.84,0-13.68-.18-20.52-.06a38.49,38.49,0,0,0-7.5,1.17,2.45,2.45,0,0,0-1.59,1.65c-.18,2.34-.07,4.69-.07,7l.71.28,1.27-1.85c-1.93,3.41-1.93,3.41-1.08,5l1-1.51L5,26c-.91,1.43-2.5,2.69-1.26,5.15.49-.69.82-1.2,1.19-1.66s.73-.78,1.09-1.17c-1.21,2.23-3.79,3.89-2.24,7.07L6.45,32c-.69,2.63-3.32,4.38-2.85,7.76l2.64-3.1C5.51,39,3,40.53,3.71,43.76l2.75-3.59.32.25A40.27,40.27,0,0,1,4.49,44c-1.13,1.44-.9,2.91-.51,4.85l3-4.78A19.33,19.33,0,0,1,4.86,48.8a5.73,5.73,0,0,0-.72,5.13l3.58-5.24.3.22c-.81,1.41-1.66,2.79-2.41,4.23C3.93,56.38,4,56.39,4.49,57.59l3.06-4.53C7.07,56,3.94,57.87,4.76,61.29l2.52-3.88C7,60.29,3.67,62.15,4.92,65.67L7,62.57l.43.27C6.72,64.15,6,65.46,5.23,66.77a5.7,5.7,0,0,0-.38,4.41l2.39-4.26.43.22c-.8,3.43-4.26,6.14-2.86,10.56l3-5.7.41.23c-.89,2-1.7,4.12-2.7,6.1-.72,1.44-.17,2.4.81,3.56.78-1.46,1.45-2.79,2.19-4.07S10,75.37,10.8,74.15l.48.29c-.45.8-1,1.57-1.33,2.4Q8.7,79.56,7.61,82.33c-.11.26.19.67.3,1a3.88,3.88,0,0,0,.85-.55,9.55,9.55,0,0,0,.58-1l2.8-4.22.47.31c-.24.4-.48.79-.7,1.2-.72,1.31-1.45,2.61-2.15,3.93-.47.88-.18,1.3.68,1.29l3-5.51.31.17L11.2,84.37l.56.42c.33-.35.81-.63,1-1.05A11.64,11.64,0,0,1,16.2,78.8c-.74,1.51-1.66,2.9-2.39,4.39s-.25,2,1.4,1.82a1.5,1.5,0,0,0,.93-.7c.7-1.14,1.29-2.35,2-3.51.39-.67.88-1.28,1.33-1.91l.39.25c-.75,1.43-1.53,2.85-2.23,4.3-.27.55-1,1.35.12,1.68.78.24,1.6.39,2.08-.93a28.83,28.83,0,0,1,2.57-4.49l.46.26L20.4,85.18h2.79c.95-2,1.8-3.82,2.64-5.62l.53.22-1.91,5.41c1.66,0,2.9,0,4.14,0,.94,0,1.35-.36,1.77-1.2a43.13,43.13,0,0,1,2.41-3.84l.51.33c-.54.93-1.08,1.85-1.63,2.77A1.07,1.07,0,0,0,32.18,85c.19.07.75-.51,1-.89.86-1.25,1.67-2.55,2.49-3.84l.47.29L34,84.7l.4.33c2.2-.27,2-3.33,4.24-4l-2.25,4.08c2.77-.22,2.95-3,5-3.55L39.42,85c3,.3,3.38-2.48,4.87-3.77l.42.2-1.6,3.54a1.58,1.58,0,0,0,2.2-.9,27.59,27.59,0,0,1,1.8-2.66l.42.29-2,3.24c1.74.58,2.84.24,3.56-1.37a26.22,26.22,0,0,1,1.87-3l.38.24c-.72,1.36-1.45,2.72-2.19,4.13,1.29.46,2.05.32,2.65-.82A28.52,28.52,0,0,1,54,81l.41.3-2,3.67c3.5.51,3.5.51,5.12-2.14.46-.75,1-1.46,1.45-2.19l.55.32-2,4a2.49,2.49,0,0,0,3.31-1.2,20.16,20.16,0,0,1,2.1-2.55l.45.4-2.13,3.29A1.73,1.73,0,0,0,63.64,84a32.3,32.3,0,0,1,2.88-3.45l.55.38-2.6,3.9c1.7.36,2.89.24,3.79-1.25a23.69,23.69,0,0,1,2.58-3l.45.37-2.54,3.71c2,.4,1.94.35,2.91-.91.84-1.08,1.81-2,2.72-3.08l.4.35-2.33,3.62c3.31.61,3.5-2.81,5.48-3.67l.38.24-2,3.46C79.25,84.85,79.62,81.9,81.42,81Z" transform="translate(0.3 -10.46)"/><path class="cls-2" d="M34.44,54.48a45.45,45.45,0,0,0-13.38-.72,1.87,1.87,0,0,0-1.23,1.08c-1.22,3.21-2.32,6.46-3.53,9.68-.18.47-.7.81-1.06,1.22-.19-.52-.61-1.09-.52-1.56.47-2.44,1.07-4.86,1.62-7.28a62.89,62.89,0,0,1,6.17-16.15,48.53,48.53,0,0,1,2.73-5c1.8-2.52,4.3-2.44,6.16,0a8.53,8.53,0,0,1,1,1.68C35,43.74,37.52,50,38.58,56.8a35.33,35.33,0,0,0,1.18,4.46c.33,1.11.19,2-1,2.44a1.76,1.76,0,0,1-2.52-1.16c-.58-2.06-1-4.17-1.46-6.26C34.68,55.7,34.57,55.12,34.44,54.48Zm-.74-3.59a114.19,114.19,0,0,0-5.17-13.45l-.65-.06c-2.25,4.47-4.51,8.94-6.82,13.51Z" transform="translate(0.3 -10.46)"/><path class="cls-2" d="M49.57,42.5v8.93l1.68-.91a7,7,0,0,1,8.4,1.29,6.3,6.3,0,0,1,1,8.19,13.83,13.83,0,0,1-2.77,3.28A6.17,6.17,0,0,1,47.5,59.42a49.47,49.47,0,0,1,0-9.81,48.54,48.54,0,0,1,1.09-6.28,3.26,3.26,0,0,1,.42-.86Zm3.73,19c2.3-.23,3.38-1.77,4.26-3.48a3,3,0,0,0-1.81-4.46c-1.79-.63-4.37.62-5.35,2.59-.5,1,.64,4.28,1.75,4.94A6.7,6.7,0,0,0,53.3,61.46Z" transform="translate(0.3 -10.46)"/><path class="cls-2" d="M74.22,64.53c-2.75.34-4.78-1.1-6.22-3.37a6.63,6.63,0,0,1-.67-2.95A8.89,8.89,0,0,1,67.62,56a6.49,6.49,0,0,1,6.66-5.4c2,.08,3.6,1.46,3.51,3.14a1.88,1.88,0,0,1-.62,1.2c-.14.11-.84-.21-1.06-.5a2,2,0,0,0-2.57-.55c-1,.35-2.11.76-2.23,2.11-.06.7-.09,1.4-.09,2.09a2.32,2.32,0,0,0,2.33,2.38,8.24,8.24,0,0,0,5.78-1.58c.87-.71,2.08-1.54,3-.44s.09,2.28-.64,3.22C79.86,64.06,77.2,64.56,74.22,64.53Z" transform="translate(0.3 -10.46)"/><path class="cls-2" d="M95.54,45.49,91.32,52C90.57,50.46,93,46.36,95.54,45.49Z" transform="translate(0.3 -10.46)"/><path class="cls-2" d="M29.69,80.45c-.23.45-.48.89-.69,1.35-.3.67-.56,1.35-.88,2a5.42,5.42,0,0,1-.59.83c-.11-.36-.4-.81-.28-1.06.58-1.17,1.27-2.28,1.92-3.41Z" transform="translate(0.3 -10.46)"/><path class="cls-3" d="M47.47,89c-9.93,0-19.86,0-29.8,0a35.49,35.49,0,0,1-7.28-.68C4.15,87,.89,83,.65,76.46c-.1-2.78.2-5.58.15-8.37C.74,64.45.43,60.82.37,57.18.22,47.85.13,38.51,0,29.18c0-2.94-.06-5.89,0-8.83.15-5.13,2.43-7.93,7.54-8.63a99.86,99.86,0,0,1,13.26-1c12.78,0,25.55.19,38.33.27,8.13,0,16.26,0,24.39,0a24.5,24.5,0,0,1,4.74.6c7,1.47,10.88,5.72,11.32,12.93.2,3.31-.28,6.66-.31,10,0,4.08-.13,8.19.18,12.25A118,118,0,0,1,99,73.26a28.85,28.85,0,0,0,.16,4.44c0,1.84.09,3.7-.07,5.52-.27,3-2,4.54-5,4.71a17.53,17.53,0,0,1-3-.06,50.78,50.78,0,0,0-9.39,0c-11.4.6-22.83,1-34.24,1.41Zm34-8,.4.25L79.9,84.41c1.46.73,1.94-.34,2.6-1.12s1.38-1.46,2.07-2.19l.48.35-2,3c1.67.32,1.64.3,2.61-.71s1.9-1.88,2.85-2.81l.56.49L86.66,84.5l.34.4c2.62-.33,3-3.73,5.3-4.53l.4.31-2.89,4.11c1.35,0,2.58.8,3-1,.07-.34.5-.6.77-.9.1.39.21.77.3,1.16,0,.18,0,.37.07.55,1.35-.16,1.29-.15,1.19-1.26-.12-1.48-.2-3-.18-4.46s.2-2.7.33-4.33l-3.75,4.78L91.12,79c1.26-3.79,5.24-6.4,4.63-11.08l-3.7,5-.45-.3a6.74,6.74,0,0,1,.66-1.41,47.31,47.31,0,0,1,3.28-4.06,3.15,3.15,0,0,0,.67-3.45c-1.47,2-2.73,3.82-4,5.58l-.51-.25a10,10,0,0,1,.93-2.33,24.12,24.12,0,0,1,3-3.52c1.25-1.18,1.11-2.48.91-3.86l-.47-.23-3.54,6-.42,0c0-.59-.11-1.3.16-1.75a28.24,28.24,0,0,1,3.36-4.89c1.22-1.27,1.06-2.45.71-4.25l-3.89,5.24-.53-.3a8.22,8.22,0,0,1,.81-1.89c1-1.26,2-2.45,3.1-3.64A1.85,1.85,0,0,0,96,51L92,56.18l-.47-.27a11.44,11.44,0,0,1,1.07-2.29c.85-1.11,1.89-2.06,2.82-3.1.32-.36.81-.8.79-1.18-.11-3-.32-5.94-.49-8.9l-.43-.2L89.94,47l-.5-.27a11.68,11.68,0,0,1,1.19-2.49,56.33,56.33,0,0,1,4.24-4.63,2.51,2.51,0,0,0,.44-3.2l-3.73,4.73-.43-.23a4.89,4.89,0,0,1,.51-1.51A11,11,0,0,1,94,36.73a4.8,4.8,0,0,0,2.1-4.29c.08-2.26.24-4.51.36-6.77a10.05,10.05,0,0,0-4.66,6.48l3-2.67.17.28c-1.63,2.5-3.25,5-5,7.69-.7-.08-.94-.34-.45-1.41s1.29-2.23,1.94-3.33c-1.22-.73-1.5-1.22-.66-2.4a45.53,45.53,0,0,1,4.39-5.23c1.13-1.17,1.31-1.55.27-3.06a12.11,12.11,0,0,0-4.16,5c-.1.25-.43.41-.65.61-.17-.27-.51-.58-.46-.82a3.37,3.37,0,0,1,.62-1.64,38.29,38.29,0,0,1,3.41-3.33c1.36-1.16,1.41-1.47-.22-3l-4.4,5.84c-.13-.24-.44-.59-.37-.69,1.32-2.05,2.69-4.07,4.13-6.21l-1.25-1-4.69,5.83-.32-.25c.65-2.47,2.74-4,4.38-5.78-1.62-1.18-2-1.19-3.19.17s-2.17,2.73-3.47,4.39c-.07-.64-.34-1.3-.14-1.74a9.09,9.09,0,0,1,1.54-2c.64-.71,1.34-1.37,2-2.06l-.41-.47c-2.82.21-3.72,3-5.56,4.59-.28-2.42,2.14-3.1,3.14-4.74a1.78,1.78,0,0,0-2.51.39c-1.11,1.36-2.35,2.62-3.54,3.92L79,18.75c.06-2,2.31-2.78,3.13-4.4a3.64,3.64,0,0,0-4.32,1.37c-.53.72-1,1.47-1.61,2.15a5.42,5.42,0,0,1-1,.76,3.48,3.48,0,0,1,.2-1.33c.67-1,1.47-1.93,2.24-2.93-4.2-1-5.94,2-7.93,4.71-.55-2.22,1.36-3.07,2.36-4.43-3.4-.56-5.09.29-6.58,3.13-.2.37-.64.61-1,.91,0-.48-.19-1.08,0-1.43a31.22,31.22,0,0,1,2.1-2.69c-2.89-.47-3.64,2-5.16,3.51-.84-1.76.84-2.41,1.54-3.9-1.56.13-3.09-.15-4.06.46s-1.48,2.14-2.19,3.26l-.5-.27L58,14.05c-1.8,0-3.51-.41-4.83.12s-2.09,2-3.11,3L49.65,17l1.56-2.8c-3.12-.95-5.31.22-6.81,3.07L44,16.81,45.55,14H43.82c-3.8,0-7.59,0-11.38,0-6.84,0-13.68-.18-20.52-.06a38.49,38.49,0,0,0-7.5,1.17,2.45,2.45,0,0,0-1.59,1.65c-.18,2.34-.07,4.69-.07,7l.71.28,1.27-1.85c-1.93,3.41-1.93,3.41-1.08,5l1-1.51L5,26c-.91,1.43-2.5,2.69-1.26,5.15.49-.69.82-1.2,1.19-1.66s.73-.78,1.09-1.17c-1.21,2.23-3.79,3.89-2.24,7.07L6.45,32c-.69,2.63-3.32,4.38-2.85,7.76l2.64-3.1C5.51,39,3,40.53,3.71,43.76l2.75-3.59.32.25A40.27,40.27,0,0,1,4.49,44c-1.13,1.44-.9,2.91-.51,4.85l3-4.78A19.33,19.33,0,0,1,4.86,48.8a5.73,5.73,0,0,0-.72,5.13l3.58-5.24.3.22c-.81,1.41-1.66,2.79-2.41,4.23C3.93,56.38,4,56.39,4.49,57.59l3.06-4.53C7.07,56,3.94,57.87,4.76,61.29l2.52-3.88C7,60.29,3.67,62.15,4.92,65.67L7,62.57l.43.27C6.72,64.15,6,65.46,5.23,66.77a5.7,5.7,0,0,0-.38,4.41l2.39-4.26.43.22c-.8,3.43-4.26,6.14-2.86,10.56l3-5.7.41.23c-.89,2-1.7,4.12-2.7,6.1-.72,1.44-.17,2.4.81,3.56.78-1.46,1.45-2.79,2.19-4.07S10,75.37,10.8,74.15l.48.29c-.45.8-1,1.57-1.33,2.4Q8.7,79.56,7.61,82.33c-.11.26.19.67.3,1a3.88,3.88,0,0,0,.85-.55,9.55,9.55,0,0,0,.58-1l2.8-4.22.47.31c-.24.4-.48.79-.7,1.2-.72,1.31-1.45,2.61-2.15,3.93-.47.88-.18,1.3.68,1.29l3-5.51.31.17L11.2,84.37l.56.42c.33-.35.81-.63,1-1.05A11.64,11.64,0,0,1,16.2,78.8c-.74,1.51-1.66,2.9-2.39,4.39s-.25,2,1.4,1.82a1.5,1.5,0,0,0,.93-.7c.7-1.14,1.29-2.35,2-3.51.39-.67.88-1.28,1.33-1.91l.39.25c-.75,1.43-1.53,2.85-2.23,4.3-.27.55-1,1.35.12,1.68.78.24,1.6.39,2.08-.93a28.83,28.83,0,0,1,2.57-4.49l.46.26L20.4,85.18h2.79c.95-2,1.8-3.82,2.64-5.62l.53.22-1.91,5.41c1.66,0,2.9,0,4.14,0,.94,0,1.35-.36,1.77-1.2a43.13,43.13,0,0,1,2.41-3.84l.51.33c-.54.93-1.08,1.85-1.63,2.77A1.07,1.07,0,0,0,32.18,85c.19.07.75-.51,1-.89.86-1.25,1.67-2.55,2.49-3.84l.47.29L34,84.7l.4.33c2.2-.27,2-3.33,4.24-4l-2.25,4.08c2.77-.22,2.95-3,5-3.55L39.42,85c3,.3,3.38-2.48,4.87-3.77l.42.2-1.6,3.54a1.58,1.58,0,0,0,2.2-.9,27.59,27.59,0,0,1,1.8-2.66l.42.29-2,3.24c1.74.58,2.84.24,3.56-1.37a26.22,26.22,0,0,1,1.87-3l.38.24c-.72,1.36-1.45,2.72-2.19,4.13,1.29.46,2.05.32,2.65-.82A28.52,28.52,0,0,1,54,81l.41.3-2,3.67c3.5.51,3.5.51,5.12-2.14.46-.75,1-1.46,1.45-2.19l.55.32-2,4a2.49,2.49,0,0,0,3.31-1.2,20.16,20.16,0,0,1,2.1-2.55l.45.4-2.13,3.29A1.73,1.73,0,0,0,63.64,84a32.3,32.3,0,0,1,2.88-3.45l.55.38-2.6,3.9c1.7.36,2.89.24,3.79-1.25a23.69,23.69,0,0,1,2.58-3l.45.37-2.54,3.71c2,.4,1.94.35,2.91-.91.84-1.08,1.81-2,2.72-3.08l.4.35-2.33,3.62c3.31.61,3.5-2.81,5.48-3.67l.38.24-2,3.46C79.25,84.85,79.62,81.9,81.42,81Z" transform="translate(0.3 -10.46)"/><path class="cls-3" d="M34.44,54.48a45.45,45.45,0,0,0-13.38-.72,1.87,1.87,0,0,0-1.23,1.08c-1.22,3.21-2.32,6.46-3.53,9.68-.18.47-.7.81-1.06,1.22-.19-.52-.61-1.09-.52-1.56.47-2.44,1.07-4.86,1.62-7.28a62.89,62.89,0,0,1,6.17-16.15,48.53,48.53,0,0,1,2.73-5c1.8-2.52,4.3-2.44,6.16,0a8.53,8.53,0,0,1,1,1.68C35,43.74,37.52,50,38.58,56.8a35.33,35.33,0,0,0,1.18,4.46c.33,1.11.19,2-1,2.44a1.76,1.76,0,0,1-2.52-1.16c-.58-2.06-1-4.17-1.46-6.26C34.68,55.7,34.57,55.12,34.44,54.48Zm-.74-3.59a114.19,114.19,0,0,0-5.17-13.45l-.65-.06c-2.25,4.47-4.51,8.94-6.82,13.51Z" transform="translate(0.3 -10.46)"/><path class="cls-3" d="M49.57,42.5v8.93l1.68-.91a7,7,0,0,1,8.4,1.29,6.3,6.3,0,0,1,1,8.19,13.83,13.83,0,0,1-2.77,3.28A6.17,6.17,0,0,1,47.5,59.42a49.47,49.47,0,0,1,0-9.81,48.54,48.54,0,0,1,1.09-6.28,3.26,3.26,0,0,1,.42-.86Zm3.73,19c2.3-.23,3.38-1.77,4.26-3.48a3,3,0,0,0-1.81-4.46c-1.79-.63-4.37.62-5.35,2.59-.5,1,.64,4.28,1.75,4.94A6.7,6.7,0,0,0,53.3,61.46Z" transform="translate(0.3 -10.46)"/><path class="cls-3" d="M74.22,64.53c-2.75.34-4.78-1.1-6.22-3.37a6.63,6.63,0,0,1-.67-2.95A8.89,8.89,0,0,1,67.62,56a6.49,6.49,0,0,1,6.66-5.4c2,.08,3.6,1.46,3.51,3.14a1.88,1.88,0,0,1-.62,1.2c-.14.11-.84-.21-1.06-.5a2,2,0,0,0-2.57-.55c-1,.35-2.11.76-2.23,2.11-.06.7-.09,1.4-.09,2.09a2.32,2.32,0,0,0,2.33,2.38,8.24,8.24,0,0,0,5.78-1.58c.87-.71,2.08-1.54,3-.44s.09,2.28-.64,3.22C79.86,64.06,77.2,64.56,74.22,64.53Z" transform="translate(0.3 -10.46)"/><path class="cls-3" d="M95.54,45.49,91.32,52C90.57,50.46,93,46.36,95.54,45.49Z" transform="translate(0.3 -10.46)"/><path class="cls-3" d="M29.69,80.45c-.23.45-.48.89-.69,1.35-.3.67-.56,1.35-.88,2a5.42,5.42,0,0,1-.59.83c-.11-.36-.4-.81-.28-1.06.58-1.17,1.27-2.28,1.92-3.41Z" transform="translate(0.3 -10.46)"/></g></svg>