<svg id="Layer_1" data-name="Layer 1" xmlns="http://www.w3.org/2000/svg" viewBox="0 0 86.53 100"><defs><style>.cls-1{fill:#566755;fill-rule:evenodd;}</style></defs><title>study</title><path class="cls-1" d="M53.74,0l-4,.25-4,.48-4,.94-3.74,1.2-3.5,1.42L31.3,6.21,28,8.35,25.21,11l-2.34,2.62L21,16.48l-1.87,3.33L18,23.16,17,27.21l-.46,1.91v4.3l.23,1.91-.23,1.9-.24,1-.47,1-.93,1.67-1.17,1.43-2.58,3.11L8.85,48.21l-.94,1.67-.7,1.68L7,53l-.23,1.2L7,55.37l.71,1.19.7.72.7.48.7.24h4l.93.24.47.48.47.47.47.48.23,1.43.24,1.67,1.17,3.82.93,3.82L19.13,74l.47,4.06L19.83,80l.47,1.67.7,1.91L21.94,85l.46.72.71.72,1.4.72h3.28l3.27-.48,1.87-.24h1.41l1.17.24,1.17,1,.92,1.19.94,1.66,1.4,3.1,1.17,2.64.7.94.94,1.68.47.48.7.48.47.23.46-.23.24-.72-.24-.72-.46-2.14L42.75,92.6l-1.4-3.81-.94-1.92-.47-1.66-.23-1.67v-.48l.23-.24.94-.72,1.17-.95.7-1.19.23-.48v-.24l-.23-.48h-.47l-1.17-.23L39.47,79l-1.87.72-3.26,1.91-2.81,1-1.4.48-1.64.23H27.08l-1.4-.23-.47-.48-.7-.48L24,81.63l-.23-1L23.34,79l-.47-1.91L22.4,73l-.46-1.43-.24-1,.24-.47v-.48l.93-.71.94-.25.7-.23h1.87l1.87-.23.94-.25.94-.23.46-.72.47-.48v-.48l-.93-.48-1.64-.23-1.64.23-2.34.48H22.4l-.93-.23-.7-.48-.47-.72-.23-1.19-.47-2.63-.24-2.62L19.13,57l-.23-1-.47-.46L18,55.14,17,54.89l-1.4-.23-1.4-.24H13.05l-1.16-.24-.72-.24L11,53.46v-1l.22-.71.94-1.43L14.22,48l2.34-3.35,2.57-3.34.7-1.67.7-1.67.7-1.91.24-1.91.47-3.58.7-3.81.23-1.68.7-1.9L25,19.81l2.1-3.1,2.34-2.62,1.41-1.2,1.4-1.19,3.28-1.91,3.73-1.44L43,7.16l4-.71,3.74-.24h4l3.51.24,3.51.48,3.73,1,3.51,1.19,3.51,1.67,3,1.91,3,2.39,2.81,2.38,1.17,1.68.94,1.42,1.87,3.35,1.4,3.58.94,3.82.47,3.82v2.14l-.24,1.91-.47,2.15L87,43.2l-1.41,3.58L83.68,50.6l-3.51,6.92L78.3,60.86l-2.11,3.35-1.87,2.14-1.4,1.44L72,69.45l-.93,1.19v1.67l.47.48h.7l.93.24.24-.24V73h-.24l-.93,1-.94,1.43-.7,1.43v1.2l.47.48h1.17l.47-.25,1.17-.48.46-.23.24.23.23.48-.47.72-1.17,1.44-.7.94L72,82.1l-.23.72.23.72.71.48.46.23,1.17-.48h.94l.23.48.24.71v.48l-.24.48-.46.72-.47.71v.71l.23.48.7.48.94.72.7.71.7.48.24.25.46-.25L79,90.7l.47-.72.23-.72.24-1.2V85.44l-.47-4.77v-9.3l.23-1.92.47-1.91.94-1.91L82,64l2.11-3.58,2.11-3.57L88.13,53,90,48.92l1.64-4.05,1.17-4.06.23-1.9.23-2.16V34.61L93,32.46l-.7-4.06-1.17-3.82-.7-1.9L89.52,21l-2.33-3.81-2.57-3.35L82,10.74l-2.8-2.62L76,6,72.69,4.06,69.18,2.63,65.43,1.44l-4-.71L57.72.25Zm4.92,19.81-3.28.25-3.51.71L48.13,22.2l-1.64.71-1.64,1-1.63,1.19-1.41,1.2-1.17,1.43-1.17,1.43-.7,1.67-.7,1.67-.22,1.91.22,1.9.23,1,.24,1,.93,1.66,1.17,1.44,1.41,1.43,1.17,1.44,1.17,1.43.93,1.67.24,1,.23,1v1.67l.47,1.91.47,1.67.7,1.66,1.4,2.64.7,1.43,1.17,1,1.41.47h1.63l1.64-.23,1.41-.72,1.4-.95,1.17-1.2L60.3,57l.23-1.42v-1l-.23-.72-.47-1.67V50.84l.23-1.19V46.78l.24-1.19.7-1.43,2.09-3.58L65.2,37l.93-1.91.71-2.15L67.3,31l.24-2.39v-1.9l-.47-1.92-.7-1.43L65.2,22,64,21l-1.63-.71-1.64-.48ZM55.38,57l.94.24.47.48-.24.48-.47.23-1.87,1H52.34l-.7-.24-.94-.47-.7-.48v-.48l.24-.24.23-.24.7-.24Zm1.17-4.54.7.25.47.23.47.48-.23.72-.24.24-.7.47-1.4.25-3,.48-.94-.25H50.47L50,55.14l-.47-.25-.23-.47v-.48l.47-.48.23-.23L51.41,53l2.33-.48ZM37.38,45.59l-.94.48-1.17.48-.93.71-.71,1-.46,1v.95l.23.48.47.24.7.47.47.25h.7l.47-.25,1.17-.71.92-1.2.47-1.19L39,47v-1l-.24-.25-.47-.23Zm19.17,2.62,1.41.48.23.23-.23.25-.71.48-1.4.23-3,.72-3.28.71h-.46l-.47-.23-.24-.48-.23-.24.23-.71.47-.73.47-.23.94-.23,2.34-.25ZM60.3,23.87l1.4.48.94.95.7,1,.22,1.19v1.43l-.22,1.67-.25,1.68-.69,1.9-.93,1.68-1.88,3.58L57.49,43l-1.41,1.66-.7.72-.7.24H54l-.24-.24-.23-.24.23-.24,1.17-1.67.71-1.43.46-1.67.47-3.35V34.61l-.23-.24-.47-.24h-.23l-.71.48-.7.48-.7.72-.7.71h-.94l-1.17-.25L50.24,36,50,35.56l-.47-.23h-.46l-.24.48-.23.71.23,1.19.7,1.68.71,1.9.7,1.91.47,1.67.23.72-.23.48-.47.23-.94.25H48.6l-.7-.48-.71-.48L46,43.92l-2.1-3.34-1.4-1.44-.94-1.43-.47-1L40.88,36v-.95l.23-1.19.47-1.67,1.17-1.44,1.17-1.43,1.4-1,2.81-2.14,1.64-.72,1.64-.72,1.87-.47,1.63-.48Zm9.81,18.37-1.17.48-.7.48v.48l.23.48.71.47.7.48.93.24h.94l.94-.24.7-.24.47-.48v-.47l-.24-.48V43.2L73.15,43l-.93-.48Zm-17.3-2.85.23.23.24.48-.24.48-.46-.48-.24-.25v-.46ZM32.7,33.65l-1.64.48-.7.24-.7.48-.24.48-.23.48.47.46.93.48h1.87l.94-.23.7-.48.24-.71v-.48l-.47-.72Zm42.09-3.58-.47.25-1.17.23-.23.48v.24l.47.24.93.47.94.25L76,32l.47-.23.23-.24L76.9,31l-.47-.24L76,30.32ZM37.13,22.44l-.69.24-.47.48v.71l.24.71.47.72.7.71.69.48.7.25.94-.48.23-.48V25.3l-.23-.72-1.17-1.19-.69-.48Zm32.05-7.16-.47.24-.47.48-1.4,1.19-.47.71v1.2l.7.48h.47L68,19.1l.7-.48.23-.48.47-.95V16ZM49.77,13.36l-.47.25-.47.48-.23.47v1l.23,1,.47.71.23.23.47-.23.47-.25.47-.46.7-1.44-.47-.72-.47-.48-.46-.48Z" transform="translate(-6.74 0)"/></svg>