<svg id="Layer_1" data-name="Layer 1" xmlns="http://www.w3.org/2000/svg" viewBox="0 0 98.87 100"><defs><style>.cls-1{fill:#566755;fill-rule:evenodd;}</style></defs><title>what</title><g id="dna"><path class="cls-1" d="M98.62,24A1.42,1.42,0,0,0,97,24c-.47.36-.87.81-1.33,1.19a.43.43,0,0,1-.44,0,.39.39,0,0,1-.08-.4c.72-1.16,1.49-2.28,2.18-3.46a1.49,1.49,0,0,0-.16-1.69,1.53,1.53,0,0,0-1.63-.5,3.41,3.41,0,0,0-.95.35,22.8,22.8,0,0,0-2,1.16c-1.19.83-2.35,1.72-3.52,2.58s-1.27.86-2.16,0c-1.52-1.51-3-3-4.46-4.61-2.71-3.08-5.34-6.23-8-9.36-1.25-1.47-1.36-1.19-.18-3,.33-.5.68-1,1-1.47.14-.21.31-.41.45-.62a1.32,1.32,0,0,0-.25-1.64A1.72,1.72,0,0,0,73,2.11a6.93,6.93,0,0,0-1.4,1.46c-.87,1.27-1.66,2.59-2.52,3.87a4.32,4.32,0,0,1-.82.77v.13l-.15.05L68,8.6c0-.06,0-.15,0-.18s0,0,.08,0l.08-.12.07-.06a7.26,7.26,0,0,1,1.14-4.5,6.48,6.48,0,0,0,.7-1.36A4.06,4.06,0,0,0,70.3,1.1,1.09,1.09,0,0,0,68.66.16a4.05,4.05,0,0,0-1.12,1A19.47,19.47,0,0,0,66.28,3.4c-.47.92-.85,1.87-1.33,2.77a26.06,26.06,0,0,0-2,4.73,44.19,44.19,0,0,0-1.64,8,27.93,27.93,0,0,0,.5,9.65c0,.16.08.33.11.5a.59.59,0,0,1-.58.67c-.84-.16-1.67-.34-2.51-.49a18.65,18.65,0,0,0-2.77-.39q-4.23-.07-8.46,0a8.77,8.77,0,0,0-2.75.47q-3.26,1.18-6.41,2.58a8.89,8.89,0,0,0-2.35,1.53,27.18,27.18,0,0,0-7.68,11.33,12.34,12.34,0,0,0-.63,3.51c-.1,3.42-.1,6.84-.09,10.26,0,2.15.28,2.19-2.25,2.14-.94,0-1.88,0-2.82,0a11.49,11.49,0,0,0-3.54.42,13.15,13.15,0,0,1-6.08.25,4.84,4.84,0,0,0-1.52,0,24.14,24.14,0,0,0-8.68,2.9,2.94,2.94,0,0,0-1.56,1.62,12.31,12.31,0,0,0-.66,5A1.68,1.68,0,0,0,3.08,72.3c1.66-1,3.55-1.13,5.29-1.79a4.66,4.66,0,0,1,1-.19,1,1,0,0,1,1.15.78,3.34,3.34,0,0,1,.14,1,2.34,2.34,0,0,0,.82,1.81c.25.24.49.48.72.73Q17.3,80,22.39,85.46c.29.31.5.68.77,1,.7.84,1,.94,2.22.46A1.32,1.32,0,0,1,26.8,87a9.28,9.28,0,0,0,1.56.82A.81.81,0,0,0,29,87.6a.83.83,0,0,0,.17-.68,4.3,4.3,0,0,0-.81-1.27q-2.25-2.3-4.56-4.51c-3.51-3.37-7-6.72-10.57-10.09-.54-.52-1.23-.91-1.5-1.68.46-.91,1.45-.71,2.2-1a11.24,11.24,0,0,1,1.73-.44c.77-.18,1.24.11,1.17.85a3.94,3.94,0,0,0,.76,2.89A58.38,58.38,0,0,0,25,79.82c.87.82,1.24.87,2.28.2a1.54,1.54,0,0,1,1.86-.18,2,2,0,0,0,.73.21,1.18,1.18,0,0,0,1.21-.75,1.07,1.07,0,0,0-.46-1.11,5.47,5.47,0,0,0-.63-.44,21.16,21.16,0,0,1-4.18-3.37q-3.09-3.06-6.17-6.16l-.33-.39c-.17-.21,0-.46.25-.52a42.61,42.61,0,0,1,10-.54c1,0,1.4.38,1.56,1.36s.18,1.87.31,2.8a61.48,61.48,0,0,1,.78,11.73A22.15,22.15,0,0,1,30,92.32a6.61,6.61,0,0,0-.32,1.22,8.24,8.24,0,0,1-.38,1.19c-.84,1.82-.72,2.19.92,3.34a2.4,2.4,0,0,0,2.41.35,4.69,4.69,0,0,1,1.22-.33,1.75,1.75,0,0,0,1.58-1.45c.34-1.14.68-2.29,1.06-3.42C38,88.76,38,84.14,37.73,79.54a67.52,67.52,0,0,0-1.33-9.89,3.33,3.33,0,0,1-.19-1.5c.17-.57.89-.29,1.35-.46a2.41,2.41,0,0,0,.66-.38,8.57,8.57,0,0,0,2.33-3.87,1.05,1.05,0,0,0-.67-1.23,14,14,0,0,0-2-.47c-4.94-.74-4,.1-4.2-4.63a19.64,19.64,0,0,1,1.24-6.76c.12-.37.41-.22.59-.07a13.8,13.8,0,0,0,1.57,1.31,2.73,2.73,0,0,0,1.45.3,1,1,0,0,0,.71-1.57,7,7,0,0,0-.73-.71c-2.73-2.5-2.68-1.88-.78-5.19A3.23,3.23,0,0,1,38,44c.23-.26.52-.47.87-.2.55.41,1.07.85,1.62,1.25a7.1,7.1,0,0,0,1.08.66A1.22,1.22,0,0,0,43,45.34a1.33,1.33,0,0,0-.09-1.45c-.3-.29-.65-.53-1-.8-2.42-2-2.3-1.78-.3-3.79,1.67-1.67,1.68-1.8,3.21.23a11.88,11.88,0,0,0,1.83,1.78.87.87,0,0,0,1.17,0A1.09,1.09,0,0,0,48.15,40a12.38,12.38,0,0,0-.78-1c-.48-.6-1-1.18-1.46-1.78-.26-.32-.15-.64.28-.75,1.4-.39,2.82-.68,4.19-1.13a1.67,1.67,0,0,1,1.85.34,27.32,27.32,0,0,0,2.91,2.07c.46.29.94.09,1.31-.42a.86.86,0,0,0-.15-1.15c-.35-.36-.74-.69-1.08-1.07-.06-.06,0-.26.07-.38s.15-.07.23-.07L63,34.46a1.34,1.34,0,0,1,1.32.59q1.16,2,2.24,4c.06.11-.17.51-.33.56a4.92,4.92,0,0,1-1.47.24c-1.45,0-2.9-.26-4.34-.21a16.28,16.28,0,0,0-6.71,1.4c-2,1-3.89,2.12-5.81,3.22a6.34,6.34,0,0,0-1,.83,12.94,12.94,0,0,0-2.79,4,23.85,23.85,0,0,0-2,8.42,26.68,26.68,0,0,0,.51,8.41A16.76,16.76,0,0,0,49.21,76c4.11,3,8.76,3,13.51,2.46,2.17-.76,4.56-.76,6.63-1.88a.9.9,0,0,1,1.16.22c2.13,2.46,4.29,4.88,6.35,7.38,2.6,3.17,5.09,6.43,7.68,9.6,1.51,1.85,3.12,3.62,4.71,5.4a2.59,2.59,0,0,0,2.32.83,15.5,15.5,0,0,0,2-.43,5.5,5.5,0,0,0,3.64-3,13.83,13.83,0,0,0,.92-3.18A2.72,2.72,0,0,0,97.66,91c-1.28-1.71-2.57-3.42-4-5-2.49-2.92-5.08-5.76-7.6-8.66-.84-1-1.57-2-2.39-3-1-1.25-2.18-2.41-3.15-3.71-1.9-2.54-2-1.78-.52-4.67A8,8,0,0,0,81,62.24c0-1.63,0-3.25,0-4.88A28.1,28.1,0,0,0,80.17,51a7.19,7.19,0,0,0-2.71-4.21c-.79-.64-1.54-1.35-2.36-2-1.31-1-2.36-2.23-3.85-3a.8.8,0,0,1-.43-1.26,2.27,2.27,0,0,0-.09-2.19L69,35a.38.38,0,0,1,.34-.5,3.57,3.57,0,0,1,1,.11,18.29,18.29,0,0,0,4.48,1.07,18.31,18.31,0,0,0,8.85-.44c2.26-.77,4.53-1.52,6.82-2.2a17.09,17.09,0,0,0,8-5.7,5.89,5.89,0,0,0,.87-1.55A1.59,1.59,0,0,0,98.62,24ZM82.11,80.72c.3-.28.65-.5.92-.71a2.38,2.38,0,0,1,.58.31c.53.55,1.06,1.11,1.56,1.7q3.77,4.52,7.5,9.06a10.9,10.9,0,0,1,.89,1.25,1.9,1.9,0,0,1-.45,2.3.46.46,0,0,1-.44,0,8.16,8.16,0,0,1-1.34-1.14c-1.09-1.31-2.11-2.68-3.19-4C86.1,87,84,84.48,82,82,81.52,81.43,81.53,81.25,82.11,80.72Zm-5.25-9.13c.15.06.35.09.43.2q1.77,2.49,3.49,5c.06.1,0,.3,0,.45a.29.29,0,0,1-.18,0c-.84-.64-2.08-.84-2.28-2.14-.6-.59-1.21-1.16-1.8-1.75-.27-.27-1-.23-.73-.8.14-.35.58-.59.89-.86A.63.63,0,0,1,76.86,71.59Zm-7.16-24a9.74,9.74,0,0,1,5.35,6.79,42.81,42.81,0,0,1,.87,4.76,5.87,5.87,0,0,1-.41,3,26.31,26.31,0,0,1-4.75,8.12,6.68,6.68,0,0,1-3.89,2.26c-1.91.38-3.79,1-5.7,1.36a8.42,8.42,0,0,1-5.27-.3c-.94-.4-1.95-.65-2.84-1.12a10.77,10.77,0,0,1-4.72-5.54,14,14,0,0,1-1.24-6.73c0-.59,0-1.19,0-1.79h0c0-1.1-.06-2.22,0-3.32a11.13,11.13,0,0,1,4.38-8.32,5.23,5.23,0,0,1,2.31-1,50.13,50.13,0,0,1,7.64-.61,12.8,12.8,0,0,1,6.17,1.38C68.35,46.84,69,47.24,69.7,47.56Zm7.57-17.71c-1.62,0-3.23,0-4.85,0v.05c-1.54,0-3.07,0-4.61,0-.4,0-.66-.32-.49-.64a5.35,5.35,0,0,0,.36-2.5c0-2.13,0-4.27.09-6.4a3.07,3.07,0,0,1,.21-1,.46.46,0,0,1,.39-.19,3.69,3.69,0,0,1,.77.65q4.19,4.65,8.36,9.33a.62.62,0,0,1,.19.45A.53.53,0,0,1,77.27,29.85Zm8.89-3.66c-1.59.82-3.18,1.62-4.78,2.43a.8.8,0,0,1-.94-.16c-.45-.4-.89-.8-1.3-1.24-3.29-3.46-6.55-6.93-9.86-10.38a1.79,1.79,0,0,1-.42-2.09,21.66,21.66,0,0,1,3.52-5.6.46.46,0,0,1,.41,0,10.76,10.76,0,0,1,.77,1,93.53,93.53,0,0,0,7.92,10.35c1.38,1.51,2.83,2.95,4.24,4.43.23.24.44.5.63.73C86.27,25.92,86.26,26.14,86.16,26.19Zm5,3c-.09,0-.29-.24-.27-.34a1.74,1.74,0,0,1,1.27-1.29c.09,0,.25.17.38.26s.11.19.08.23C92.24,28.61,91.86,29.15,91.13,29.19ZM63.41,50.52a4.51,4.51,0,0,0-6-.75A3.74,3.74,0,0,0,57,55.39c.21.22.53.51.89.25a1,1,0,0,0,.42-.59c.11-.67.11-1.36.2-2a1.26,1.26,0,0,1,.95-1.09,1.56,1.56,0,0,1,1.66.34,3.69,3.69,0,0,1,1,2.05,4,4,0,0,1-.83,3.12,18.84,18.84,0,0,0-1.59,2.3,1.47,1.47,0,0,0,1.28,2A1.92,1.92,0,0,0,62.75,61a29,29,0,0,0,1.7-2.55,4.55,4.55,0,0,0,.66-2.82A8,8,0,0,0,63.41,50.52Zm-3.12,13a2.93,2.93,0,0,0-1.93,3.18,9.66,9.66,0,0,0,.17,1.06,3,3,0,0,0,2.71,2,2.79,2.79,0,0,0,2.43-1.59,3.67,3.67,0,0,0-.27-3.63A2.44,2.44,0,0,0,60.29,63.56Z" transform="translate(-0.56 0)"/></g></svg>