<svg id="Layer_1" data-name="Layer 1" xmlns="http://www.w3.org/2000/svg" viewBox="0 0 97.72 100"><defs><style>.cls-1{fill:#566755;}</style></defs><title>when</title><path class="cls-1" d="M79.12,10.71C70.47,3.59,60.25,1,49.28.14,38-.7,29,2.21,20.39,9.59,4.67,23.08-2.74,44.52,3.15,64.63c6,20.64,27,37.51,49.15,35,20.87,2.94,39-12.14,44.57-31.69C102.69,47.61,95.44,24.17,79.12,10.71Zm9.2,47.4C85,73.81,72.42,86.75,57.15,91.25a1,1,0,0,1-.49,0h0c-19,2.49-37.51-11.41-43.52-28.9-5.55-16.17-.56-34.33,12-45.82C38.57,4.32,58,4.7,72.34,15.28,85.39,24.88,91.68,42.37,88.32,58.11Z" transform="translate(-1.14 0)"/><path class="cls-1" d="M49.19,10.16a1.1,1.1,0,0,0-1.87,0c-.58,1-.3,2.16-.2,3.31s.19,2.29.37,3.43a.8.8,0,0,0,1.53,0c.17-1.14.28-2.28.37-3.43S49.77,11.2,49.19,10.16Z" transform="translate(-1.14 0)"/><path class="cls-1" d="M53.52,84.22c-.25-1.19-.43-2.39-.75-3.57a.89.89,0,0,0-1.71,0,10.8,10.8,0,0,0-.3,3.71c.09,1.15.07,2.56,1,3.33a1.17,1.17,0,0,0,1.82-.24C54.14,86.33,53.76,85.39,53.52,84.22Z" transform="translate(-1.14 0)"/><path class="cls-1" d="M21,47.94c-1-.86-2-.54-3.14-.35a19.4,19.4,0,0,0-3.64.73c-.87.33-1.18,1.92,0,2.09a19.21,19.21,0,0,0,3.79,0c1.25-.07,2.38,0,3.16-1.07A1.12,1.12,0,0,0,21,47.94Z" transform="translate(-1.14 0)"/><path class="cls-1" d="M84.24,46.92a7.32,7.32,0,0,0-5,.79,1.25,1.25,0,0,0,.3,2.26,15.68,15.68,0,0,0,2.27.19,8.74,8.74,0,0,0,2.4-.07A1.66,1.66,0,0,0,84.24,46.92Z" transform="translate(-1.14 0)"/><path class="cls-1" d="M23.18,33a22.4,22.4,0,0,1-3.39-1.44.72.72,0,0,0-.72,1.24,16.85,16.85,0,0,0,3.65,1.89C23.76,35.09,24.28,33.33,23.18,33Z" transform="translate(-1.14 0)"/><path class="cls-1" d="M29.87,22.28a4.62,4.62,0,0,0-1.33-1c-.47-.29-.94-.56-1.42-.82a.73.73,0,0,0-.89,1.14A8.6,8.6,0,0,0,29,23.83.93.93,0,0,0,30,23.41,1,1,0,0,0,29.87,22.28Z" transform="translate(-1.14 0)"/><path class="cls-1" d="M23,66.75c-1.19.32-2.18,1.79-2.65,2.85-.3.7.55,1.56,1.15.88.38-.42.77-.86,1.19-1.24A7.12,7.12,0,0,0,24,68,.88.88,0,0,0,23,66.75Z" transform="translate(-1.14 0)"/><path class="cls-1" d="M34.29,76.85c-1.13.36-1.78,1.79-2.16,2.83-.31.85,1,1.65,1.56.91.31-.38.6-.79.91-1.16a3.2,3.2,0,0,0,.89-1.38A1,1,0,0,0,34.29,76.85Z" transform="translate(-1.14 0)"/><path class="cls-1" d="M66.81,17.79c-1.17.73-1.9,1.94-2.9,2.87-.83.77.26,2.24,1.22,1.59,1.25-.84,2.67-1.88,3-3.44A.91.91,0,0,0,66.81,17.79Z" transform="translate(-1.14 0)"/><path class="cls-1" d="M77.84,27.75a8.6,8.6,0,0,0-2.46,2.46c-.72.85.41,2,1.23,1.24L78,30.18a4.2,4.2,0,0,0,1.1-1.5C79.35,27.94,78.41,27.48,77.84,27.75Z" transform="translate(-1.14 0)"/><path class="cls-1" d="M71,76.94a7.61,7.61,0,0,0-2.44-2.45.72.72,0,0,0-1,1,7.8,7.8,0,0,0,1,1.42,6.9,6.9,0,0,0,1.28,1.19C70.53,78.58,71.42,77.6,71,76.94Z" transform="translate(-1.14 0)"/><path class="cls-1" d="M80.38,62.47a7.49,7.49,0,0,0-3.46,0,.71.71,0,0,0,0,1.37,8.18,8.18,0,0,0,1.71.31,6.84,6.84,0,0,0,1.75,0C81.19,64,81.14,62.64,80.38,62.47Z" transform="translate(-1.14 0)"/><path class="cls-1" d="M56.48,28.07c-.74,3.87-1.29,6.81-1.93,9.76a2.47,2.47,0,0,0,.64,2.67C58,43.44,57.58,49,53.63,49.88c-6.51,1.66-11.48,9.24-15.6,13.2a31.22,31.22,0,0,1-5,4.26c-.74.37-1.56,1.47-2.39.55s-.55-1.84.19-2.76A177.57,177.57,0,0,1,43.09,51c1-1.11,2.11-1.66.92-3.68a4.24,4.24,0,0,1,1.46-5.43C49.05,39.76,49,36.45,49,33a11.86,11.86,0,0,1,1.1-5.89c.73-1.29,1.74-2.39,3.3-1.65C54.73,26.32,57.12,26.23,56.48,28.07Z" transform="translate(-1.14 0)"/></svg>