<svg id="Layer_1" data-name="Layer 1" xmlns="http://www.w3.org/2000/svg" viewBox="0 0 72.61 100"><defs><style>.cls-1,.cls-2{fill:#566755;}.cls-2{fill-rule:evenodd;}</style></defs><title>where</title><ellipse class="cls-1" cx="36.31" cy="95.27" rx="36.31" ry="4.73"/><path class="cls-2" d="M49.23,31.19h0L49,32.4l-.48,1.22-1,1.46-.94.73-.73.73-1,.25-.47-.25L44,36.3l-.48-.49-.24-.73V31.66L43.5,30,44,29l.24-.49.24-.49,1.67-.24.94.24.73.25.71.49.48.48.24,1Zm-9.07-7.08h0l-1.42,1.22-1,1.71L37.07,29l-.25,1.94-.23,2.2.23,1.95.25,2,.71,1.7,1,1.46,1.18,1,1.44,1,1.42.49,1.44.25h1.66l1.44-.25,1.43-.73,1.67-1.22,1.42-1.46,1.2-1.7.71-1.71.48-1.71.48-2.19V28l-1.19-2-1.68-1.69-1.67-1-1.9-1-1.91-.24H44.22l-2.15.73Zm27.42,20h0l-1.9,4.62-1.91,4.63L61.62,58l-2.37,4.38-4.54,7.56-1,1.7L53,73.56l-.95,1.71L50.9,77l-1,1-.48,1.45L49,80.63l-.72,1.22-.47-.73-.25-.73v-.74l.25-1,1-1.71.71-1.46V73.08l-.23-1-.48-.48-.48-.49-.72-.24h-.94l-.73.24-.47.49-.72,1.21L44,74.05l-.24.49-.48.24-.48.25-.48-.25-.46-.48-.25-.49-.23-.73v-.25l.48-.24.23-.49,1.67-2.92,2.14-3.9.73-1.94.46-1.71V59.19l-.46-.49L45.88,58l-.71-.24H43.74l-1,.49-.71.47-1.43,1.47-1.19,1.7-1.19,2-1.19,2.91-1-.24L35.63,66l-.47-.73-.24-.48-.24-1.22.24-1.46.95-2.93.72-2.92.23-1.46-.23-1.46-.24-.74-.48-.48-.71-.25-.72-.24-.95.24-.71.49-.48.49-.48.73-1,1.71-.72,1.46-.47-.49-.47-.73L29,54.08l.25-1.71.23-1.94,1.19-3.9.48-1.47.48-1.45v-1l-.24-.73-.24-.49-.48-.24h-.71l-.71.24-.73.49-.71.49-.71,1.22-.72,1.21-1.19,2.93-.71-1L24,46l-.24-.73-.24-.74V43.12L24,41.66l1.19-3.18L25.85,37l.48-1.46V34.35l-.23-1-.48-.49-1.19-.48H24l-.72.24-.95.49-.72.49-.71.24-.25-.24-.23-1L20.6,30,21.08,27l.48-1.95L23,21.93l1.67-3.18,2.15-2.67,2.39-2.2,2.62-1.7,2.86-1.71L38,9.26l4.06-1,4.06-.73,4-.24,4.06.24L58.29,8l1.9.73,1.67.73,1.91.74,1.43,1.21,1.67,1.46,1.44,1.46,1.19,2,.71,1.7.72,2.2.23,2.19.24,2.19v2.19l-.47,4.4-1,4.62-1.2,4.38ZM65.44,2.68h0l-2.86-1L59.71,1,57.09.49,54.23,0H48.51l-3.1.24L42.55.49l-2.86.73L37.07,2l-2.63,1-2.39,1L29.43,5.36,27.29,6.82,24.91,8.53l-2.15,1.94-2.39,2.2-1.91,2.68L16.79,18,15.6,20.71l-.95,2.92-.48,2.92-.24,3.17-.24,3.16.24,2.93L14.41,39l.71,3.17.73,2.92L17,48.23l1.19,2.93,1.19,2.67,1.44,2.69,2.86,4.87,3.1,5.11,3.1,4.88,3.58,4.87,3.81,4.62,3.81,4.39,4.3,3.9,2.14,1.71,2.39,1.69,1-1.21.94-1,1.2-1,1.19-1L55.42,87l1-1.22,1.91-3.16,3.81-6.33,3.34-6.33,3.1-5.85,2.86-5.84L74,52.37,76.17,46l1.43-5.6.48-3.18.48-3.16L79,30.93V24.6l-.24-3.16-.71-3.17-.71-2.92-1.2-2.68L74.74,10,73.07,7.8l-2.14-2L68.31,3.89Z" transform="translate(-13.69)"/></svg>