<svg id="Layer_1" data-name="Layer 1" xmlns="http://www.w3.org/2000/svg" viewBox="0 0 100 94.91"><defs><style>.cls-1,.cls-2{fill:#566755;}.cls-2{fill-rule:evenodd;}</style></defs><title>who</title><path class="cls-1" d="M89.6,21.07C81,7,66.05,2.69,50.51,5.64,33.07-1.53,16.43,3.93,7.11,20.41,2.79,28.06.82,36.92.26,45.61c-.91,14.14.78,29.09,2,43.18A2.3,2.3,0,0,0,2.68,90a2,2,0,0,0,1.56,1.89C16.58,95.32,29,96.31,41.5,93.18a2.61,2.61,0,0,0,.85-.26l.82-.38c0,.71-.1,1.42-.2,2.12-.39,2.8,3.88,4,4.28,1.18a33.65,33.65,0,0,0-.07-10,80.94,80.94,0,0,0,12.53.7A2.25,2.25,0,0,0,61,86.16c.57,0,1.12-.09,1.66-.16a16.2,16.2,0,0,0,4.17,8.42c1.91,2.14,5-1,3.14-3.14a11.14,11.14,0,0,1-3-6.35,19.06,19.06,0,0,0,9-7.39,26.44,26.44,0,0,0,23.42-7.33,2,2,0,0,0,.53-2.15,2.2,2.2,0,0,0,.12-.71C100,51.58,98,34.78,89.6,21.07ZM60.27,81.77a2.1,2.1,0,0,0-1.22.37c-10.61.1-22.82-1-29.37-10.44-5.61-8.1-6.09-11-6.6-19.36,18.27-.55,37.6-5,53.1-14.51a2.7,2.7,0,0,0,.06.36C79.68,51.12,79.09,81.52,60.27,81.77Zm18-8.36C83,63.13,83.07,48.84,81,39.17a36.51,36.51,0,0,0,3.63,2c2.57,1.22,4.82-2.6,2.24-3.83a40.8,40.8,0,0,1-7.5-4.65,3.88,3.88,0,0,0-.73-.43,1.86,1.86,0,0,0-2.14.09C60.75,43,40.34,47.61,21.28,47.94a2.59,2.59,0,0,0-1.46,0c-1.12,0-2.24,0-3.35,0-2.86-.06-2.85,4.37,0,4.43.72,0,1.46,0,2.18,0,.63,9.66,1.38,13.15,7.72,22.3,3.93,5.67,9.8,8.71,16.2,10.29a1.86,1.86,0,0,0,0,.33q.24,1.26.39,2.52c-.78.32-1.56.64-2.33,1l-.21,0c-11.41,2.89-22.61,2-33.85-1C5.65,76.28,5.23,64.64,4.74,53A62.75,62.75,0,0,1,8.45,28c2.83-7.61,7.91-14.48,15-18.52,8.17-4.65,17.81-2.92,26.05.5A1.77,1.77,0,0,0,51,10l.24,0c15.07-3,28,1.86,35.71,15.34,7.14,12.43,8.62,28,8.6,42a1.55,1.55,0,0,0,0,.31A21.78,21.78,0,0,1,78.24,73.41Z" transform="translate(0 -2.55)"/><path class="cls-1" d="M39.2,57.19A2.27,2.27,0,0,0,37,55a2.22,2.22,0,0,0-2.22,2.22,44,44,0,0,0,1,5.21c.69,2.77,5,1.59,4.28-1.18A31,31,0,0,1,39.2,57.19Z" transform="translate(0 -2.55)"/><path class="cls-1" d="M66.29,57.71a32.54,32.54,0,0,1-.66-4,2.27,2.27,0,0,0-2.22-2.22,2.22,2.22,0,0,0-2.22,2.22A44.08,44.08,0,0,0,62,58.89C62.68,61.66,67,60.49,66.29,57.71Z" transform="translate(0 -2.55)"/><path class="cls-1" d="M48.06,65.75a9,9,0,0,0,8.18.78,2.27,2.27,0,0,0,1.55-2.73,2.22,2.22,0,0,0-2.73-1.54,4.89,4.89,0,0,1-4.76-.34C47.89,60.36,45.67,64.2,48.06,65.75Z" transform="translate(0 -2.55)"/><path class="cls-1" d="M63.69,69.11C58.78,73.32,52.15,73,46.6,70.24c-2.55-1.26-4.8,2.56-2.23,3.83,7.44,3.69,16,3.76,22.46-1.82C69,70.38,65.85,67.26,63.69,69.11Z" transform="translate(0 -2.55)"/><path class="cls-2" d="M10.65,88.88c7.81.54,7.57-1.15,6.94-3-.58-1.3-9.39-4.33-8.73-5.64,1.33-2.67,4.32-.93,5.78-.74,2,.27,3.55-2.81-.31-4.87-1.71-.9-6.28-4.19-7.64-7.42A1.4,1.4,0,0,1,8.6,65.4c2.72,1.17,6.06,1.51,6.71.21,1.42-2.83-8.57-8.41-9-10.64a1.51,1.51,0,0,1,2.06-1.71s4,2.45,4.66,1.69a2.41,2.41,0,0,0-.3-3.49C11,50.15,7.86,48.65,6.84,46.73a2.1,2.1,0,0,1,.44-2.5c1.72-1.54,3.35,1.92,5.18,1.48s2-1.94.53-3.66c-.32-.36-3.5-3.93-3.91-4.22-1.45-1-.78-2.47.6-2.41,1.86.08,5.61,2.72,6.53,2.41,1.58-.54,1.84-2.16,1.12-3.67C16.8,33,13.61,32,12.93,31c-1.06-1.61-.28-2.7,1.49-3.46,1.19-.51,5.32.77,6.11.78A1.55,1.55,0,0,0,22,26c-.88-1.66-5.43-4.48-4.46-6.06A5.16,5.16,0,0,1,22.9,18c.39.08,3.44,1.8,3.82,1.94a1.52,1.52,0,0,0,1.83-2.17c-1.19-2.12-3.84-4.55-2.79-6.56.93-1.78,3.62.18,5.4,1.83s3.37,3.72,5.08,2c1.52-1.51-1.49-6.47,0-7.75,5.54,2,8.27,9.05,11.24,7.74,2-.9,2.89-5.17.86-6.1C42.5,6.22,33,5.14,26.74,6.65S11.43,17.3,8.9,23.23C-.84,46.14,1.11,65.76,6.5,90.07,10.45,90.25,6.7,88.69,10.65,88.88Z" transform="translate(0 -2.55)"/></svg>