<svg id="Layer_1" data-name="Layer 1" xmlns="http://www.w3.org/2000/svg" viewBox="0 0 100 81.83"><defs><style>.cls-1{fill:#566755;fill-rule:evenodd;}</style></defs><title>why</title><path class="cls-1" d="M34.58,48.58a4.87,4.87,0,0,1-.69,3c-.56.94-1.18,1.84-1.82,2.72a2.05,2.05,0,0,1-1.93.79,1.57,1.57,0,0,1-1.37-2.16,18.56,18.56,0,0,1,1.71-2.45,4.35,4.35,0,0,0,.88-3.33A3.86,3.86,0,0,0,30.31,45a1.65,1.65,0,0,0-1.77-.36,1.32,1.32,0,0,0-1,1.16c-.1.72-.1,1.45-.21,2.17a1.13,1.13,0,0,1-.45.63c-.39.27-.72,0-.95-.27a4,4,0,0,1,.44-6,4.79,4.79,0,0,1,6.41.81A8.45,8.45,0,0,1,34.58,48.58Z" transform="translate(0 -9.09)"/><path class="cls-1" d="M27.4,60.41a3.12,3.12,0,0,1,2-3.39,2.61,2.61,0,0,1,3.32,1,3.92,3.92,0,0,1,.29,3.88,3,3,0,0,1-2.59,1.69,3.19,3.19,0,0,1-2.89-2.09A7.39,7.39,0,0,1,27.4,60.41Z" transform="translate(0 -9.09)"/><path class="cls-1" d="M62.32,56.11H61.08l-.62.41-.62.6-.41.81-.22,1V61.8L59,63.43l-.42,1.84L58,66.89l-1,1.43-.62,1-.83.81-1,.41-.82.41-2.07.6-2.29.2-5,.82-2.49.2H39.35l-1.87-.2-2.07-.41H33.54l-.82.41-.62.61-1.25,1.43L30,76.45l-1,1.84-1,1.63-.42.81-.83.81-1,.62-.4.2h-.63l-.21-.2-.2-.41L24,80.93l.41-1.62,1-4.07.2-2.24V72l-.4-.81-.63-.61-.83-.2-1-.41H21.53l-2.27-.21-1-.2-1-.2-1.46-.82-1.85-1L13,66.89l-.61-.6-.62-.82-.22-.81v-1l.22-.62v-.4l-.22-.41-.2-.41-.62-.4-.83-.2H9.32l-.42-.41-.4-.61-.22-.82.22-.81.62-.62.61-.61,1.46-1.21.62-.61.41-.61.41-1v-.41l-.2-.41H11.19l-1.87.82-1.24.4H7l-.21-.2h-.2l.2-.61L7,52.85l1.24-1.63,1-1,1.24-1,1.66-1.82.62-.82.42-.81v-.41l-.22-.2-.41-.41-.41-.21h-.83l-.83.21-.62.61-.62.61L7.87,47.15l-.62.41-.62.4-.2-1.21v-1l.2-1.23.2-1.22.42-1.21.62-1,.63-1,.62-.82,1.65-1.62,1.86-1.22,1.87-1.23,2.07-1,2.07-.8,2.27-.41L23,32.7h2.29l2.27.21H29l1.24-.21,1-.4.41-.21.21-.2v-1l-.42-.41-.62-.82L30.23,29l-.82-.4-1.87-.81-2.07-.61L23.4,27l-2.07.21-2.28.2-1.86.41-1.86.41-1.87.6-1.87.81-1.65.82L8.5,31.68,7,32.91,5.8,34.12,4.56,35.75l-1,1.63-.83,1.83-.82,2-.62,2L.63,45.52.42,47.76,0,50.2v2.24l.21,2.24.21,2.24.41,2.24.62,2.24.83,2,1,2,1,1.62L5.8,68.93l1.66,1.43,1.66,1,1.65.81,1.86.41L14.5,73l1.65.2,1.45.21.62.2.62.41.42.61.41.61v2.23l-.2,1.23-.42,1.43-.83,2.23-1,2L16.36,86l-.63,1.63-.2.82.2.81.42.81.62.61.83.21h1l1-.21,1-.41,2.07-.8,1.65-1,1.66-1,1.65-1.23,1.45-1.41,1.46-1.43L31.47,82l1-1.82,1-1.64.63-.81.62-.41.62-.2.83-.21,2.07.21,3.73.4,5-.2,2.69-.2,2.69-.21,2.49-.61,2.48-.81L59.43,74l1-.61,1-1,.62-.82.61-1,.62-1,.22-1,.41-2,.21-2.24.2-2.25V58.34l-.41-1-.63-.8-.62-.21Zm33.55-23h0l-.21,3.26-.21,2L95,40.23l-.42,1.84-.82,1.82L93,45.32l-.61.61-.62.41-1.67.81-1.86.61-1.86.4-1.86.21H82.82l-1.66-.21-1.86.21-.62.2-.62.41-.63.61-.4.82-.22,1v.81l-.2,3.67-.21,3.86-.2,2L76,63.64l-1.66-.82L73.09,61.4l-1-1.43-.83-1.83-.62-1.83-.41-1.83L70,52.64,69.78,51l-.21-1.43-.42-1.22-.2-.61-.62-.4-.62-.21-.62-.4L65,46.34l-2.29-.2H60.46l-1.87.2-3.1.41-1.66.2H52l-1.66-.2-1.66-.41-1.23-.82-.62-.4-.42-.62-.83-1.42-.41-1.83-.21-1.63-.2-2,.2-3.67V26.19l.21-4.28.21-1.63.2-2.23L46,15.81l.42-1,.42-.4.62-.21h.41l1.24.41h2.07l2.28-.2H58l4.56.2,8.69.6h4.56l4.34.21,3.32-.21L85.3,15h1.87l1.65.2,1.66.41,1.45.82.62.41.41.81,1,1.63.62,1.83.62,1.83.21,2.24.42,4.07ZM99.8,26.6h0V23.55l-.21-3.06-.21-1.42L99,17.44,98.56,16l-.63-1.22-.62-1L96.49,13l-.83-.82-1-.61-2.07-.81-2.28-.62-2.9-.39L84.48,9.3l-2.9-.21h-2.9l-5.79.21-5.8.2-6.43-.2H48l-1.46.2-1.65.41-1.45.4-1.24.81L41,11.94l-.83.82-.62,1-.62,1L38.51,16l-.2,1.22-.21,2.44L37.89,26l-.21,6.32-.2,5.7v3l.41,2.84.62,2.86L39.13,48l.62,1.22.83,1,.83,1,1.25,1,1.45.61,1.24.61,1.45.2,1.45.41h5l2.91-.2L58,53.46l2.69-.61h1.25l1-.21,1,.21.83.4.41.41.2.61.63,1.43.21,1.62.41,1.23,1,2.44,1.44,2.24,1.45,1.83,1.45,1.83,1.87,1.43,1.86,1.42.83.62,1,.61,1,.4h.62l.42-.2.2-.41.2-.61v-12l.63-2.64.41-1,.42-.82.83-.2,1.24-.21,3.1-.2,1.45-.2,1.66-.21,2.07-.8,2.07-1,1.66-1.23.61-.81.84-1,.62-1,.62-1.23.83-2.44.62-2.85.2-2.64v-5.7Z" transform="translate(0 -9.09)"/><path class="cls-1" d="M76.4,25.17a4.87,4.87,0,0,1-.69,3,30.52,30.52,0,0,1-1.82,2.71,2,2,0,0,1-1.92.8,1.58,1.58,0,0,1-1.38-2.16,19.55,19.55,0,0,1,1.71-2.45,4.35,4.35,0,0,0,.88-3.33,3.91,3.91,0,0,0-1-2.18,1.67,1.67,0,0,0-1.78-.36,1.32,1.32,0,0,0-1,1.16c-.1.72-.1,1.45-.21,2.17a1.13,1.13,0,0,1-.45.63c-.38.27-.72,0-1-.27a4,4,0,0,1,.44-6,4.79,4.79,0,0,1,6.41.81A8.45,8.45,0,0,1,76.4,25.17Z" transform="translate(0 -9.09)"/><path class="cls-1" d="M69.22,37a3.12,3.12,0,0,1,2-3.39,2.62,2.62,0,0,1,3.32,1,4,4,0,0,1,.28,3.88,3,3,0,0,1-2.59,1.69,3.2,3.2,0,0,1-2.89-2.09A7.39,7.39,0,0,1,69.22,37Z" transform="translate(0 -9.09)"/></svg>