<?xml version="1.0" encoding="utf-8"?>
<!-- Generator: Adobe Illustrator 23.0.3, SVG Export Plug-In . SVG Version: 6.00 Build 0)  -->
<svg version="1.1" id="Layer_1" xmlns="http://www.w3.org/2000/svg" xmlns:xlink="http://www.w3.org/1999/xlink" x="0px" y="0px"
	 viewBox="0 0 60 35.5" style="enable-background:new 0 0 60 35.5;" xml:space="preserve">
<style type="text/css">
	.st0{fill:#262626;}
</style>
<title>logo1</title>
<path class="st0" d="M50.1,15c-6.6-1.3-9.9-1.7-9.9-4.1c0-1.1,0.2-3.5,4.9-3.5c4,0,4.9,2.1,4.9,4.9h10c0-3.4-1.4-6.3-4.3-8.7
	C52.8,1.2,49-0.1,45.2,0c-4.1,0-7.6,1-10.5,2.9c-2.8,1.7-4.4,4.7-4.4,8c0,3.6,1.6,6.2,4.9,7.9L35,19.1l11.9,2.8c1,0.2,2,0.8,2.6,1.7
	C50.6,25,50.3,27,49,28c-0.2,0.2-0.4,0.3-0.7,0.4c-1,0.5-2,0.6-3.1,0.3c-1-0.2-2-0.8-2.6-1.7c-0.6-0.8-0.8-1.7-0.6-2.7
	c0.1-0.7,0.5-1.3,1-1.7l-9-2.1l0.1-0.5c-0.6,1-1,2-1,3.1h-2.9c0,3.4,1.4,6.3,4.3,8.7s6.7,3.7,10.5,3.6c4.1,0,7.6-1,10.5-2.9
	c2.8-1.7,4.4-4.7,4.3-8C60,19.5,56.7,16.3,50.1,15z"/>
<path class="st0" d="M14.9,0v9.5H26v8.3l0,0c0,4.6-3.7,8.2-8.3,8.2s-8.2-3.7-8.2-8.3c0-0.6,0.1-1.1,0.2-1.7l-9.4-1.6
	c-1.9,9.6,4.4,19,14,20.8s19-4.4,20.8-14c0.2-1.1,0.4-2.3,0.3-3.4l0,0V0H14.9z"/>
</svg>
